<svg version="1.1" viewBox="0.0 0.0 582.1417322834645 328.12335958005247" fill="none" stroke="none" stroke-linecap="square" stroke-miterlimit="10" xmlns:xlink="http://www.w3.org/1999/xlink" xmlns="http://www.w3.org/2000/svg"><clipPath id="p.0"><path d="m0 0l582.1417 0l0 328.12335l-582.1417 0l0 -328.12335z" clip-rule="nonzero"/></clipPath><g clip-path="url(#p.0)"><path fill="#000000" fill-opacity="0.0" d="m0 0l582.1417 0l0 328.12335l-582.1417 0z" fill-rule="evenodd"/><path fill="#000000" fill-opacity="0.0" d="m190.40158 209.36482l186.74014 0.75590515" fill-rule="evenodd"/><path stroke="#000000" stroke-width="1.0" stroke-linejoin="round" stroke-linecap="butt" d="m190.40158 209.36482l180.7402 0.7316284" fill-rule="evenodd"/><path fill="#000000" stroke="#000000" stroke-width="1.0" stroke-linecap="butt" d="m371.1351 211.74817l4.544739 -1.6333466l-4.531372 -1.6700897z" fill-rule="evenodd"/><path fill="#000000" fill-opacity="0.0" d="m112.40157 147.36482c6.25177 0 -0.838974 -17.708649 12.50354 -35.417313c13.342522 -17.708664 47.11831 -35.417328 94.236626 -35.417328" fill-rule="evenodd"/><path stroke="#000000" stroke-width="1.0" stroke-linejoin="round" stroke-linecap="butt" d="m115.44762 142.19554l0.04322052 -0.3889923c0.033432007 -0.31506348 0.06517029 -0.6414795 0.09625244 -0.978714c0.124320984 -1.3488922 0.23807526 -2.8707275 0.40721893 -4.5309143c0.6766052 -6.640747 2.23954 -15.495087 8.910805 -24.349411c13.342522 -17.708664 47.11831 -35.417328 94.236626 -35.417328" fill-rule="evenodd"/><path fill="#000000" stroke="#000000" stroke-width="1.0" stroke-linecap="butt" d="m114.02457 141.357l-0.8808212 4.748337l3.726921 -3.0712585z" fill-rule="evenodd"/><path fill="#000000" fill-opacity="0.0" d="m356.14172 63.12336c71.49982 0 123.87366 23.503937 142.99963 47.007874c19.125977 23.503944 5.00412 47.00788 10.00824 47.00788" fill-rule="evenodd"/><path stroke="#000000" stroke-width="1.0" stroke-linejoin="round" stroke-linecap="butt" d="m356.14172 63.12336c71.49982 0 123.87366 23.503937 142.99963 47.007874c9.562988 11.751968 10.814026 23.503944 10.299835 32.31791c-0.12857056 2.2034912 -0.36746216 4.2233734 -0.61434937 6.0137024c-0.12347412 0.8951721 -0.24893188 1.7329559 -0.36361694 2.5076294l-0.030853271 0.21165466" fill-rule="evenodd"/><path fill="#000000" stroke="#000000" stroke-width="1.0" stroke-linecap="butt" d="m506.79248 151.37958l2.182373 4.3081055l1.0974121 -4.703003z" fill-rule="evenodd"/><path fill="#000000" fill-opacity="0.0" d="m62.498688 189.25197l118.078735 0l0 42.015747l-118.078735 0z" fill-rule="evenodd"/><path fill="#000000" d="m72.96744 216.17197l0 -13.359375l5.921875 0q1.78125 0 2.703125 0.359375q0.9375 0.359375 1.484375 1.28125q0.5625 0.90625 0.5625 2.015625q0 1.40625 -0.921875 2.390625q-0.921875 0.96875 -2.84375 1.234375q0.703125 0.34375 1.078125 0.671875q0.765625 0.703125 1.453125 1.765625l2.328125 3.640625l-2.21875 0l-1.765625 -2.78125q-0.78125 -1.203125 -1.28125 -1.828125q-0.5 -0.640625 -0.90625 -0.890625q-0.390625 -0.265625 -0.796875 -0.359375q-0.296875 -0.078125 -0.984375 -0.078125l-2.046875 0l0 5.9375l-1.765625 0zm1.765625 -7.453125l3.796875 0q1.21875 0 1.890625 -0.25q0.6875 -0.265625 1.046875 -0.8125q0.359375 -0.546875 0.359375 -1.1875q0 -0.953125 -0.6875 -1.5625q-0.6875 -0.609375 -2.1875 -0.609375l-4.21875 0l0 4.421875zm18.097946 4.34375l1.6875 0.203125q-0.40625 1.484375 -1.484375 2.3125q-1.078125 0.8125 -2.765625 0.8125q-2.125 0 -3.375 -1.296875q-1.234375 -1.3125 -1.234375 -3.671875q0 -2.453125 1.25 -3.796875q1.265625 -1.34375 3.265625 -1.34375q1.9375 0 3.15625 1.328125q1.234375 1.3125 1.234375 3.703125q0 0.15625 0 0.4375l-7.21875 0q0.09375 1.59375 0.90625 2.453125q0.8125 0.84375 2.015625 0.84375q0.90625 0 1.546875 -0.46875q0.640625 -0.484375 1.015625 -1.515625zm-5.390625 -2.65625l5.40625 0q-0.109375 -1.21875 -0.625 -1.828125q-0.78125 -0.953125 -2.03125 -0.953125q-1.125 0 -1.90625 0.765625q-0.765625 0.75 -0.84375 2.015625zm8.485092 2.875l1.625 -0.25q0.125 0.96875 0.75 1.5q0.625 0.515625 1.75 0.515625q1.125 0 1.671875 -0.453125q0.546875 -0.46875 0.546875 -1.09375q0 -0.546875 -0.484375 -0.875q-0.328125 -0.21875 -1.671875 -0.546875q-1.8125 -0.46875 -2.515625 -0.796875q-0.6875 -0.328125 -1.046875 -0.90625q-0.359375 -0.59375 -0.359375 -1.3125q0 -0.640625 0.296875 -1.1875q0.296875 -0.5625 0.8125 -0.921875q0.375 -0.28125 1.03125 -0.46875q0.671875 -0.203125 1.421875 -0.203125q1.140625 0 2.0 0.328125q0.859375 0.328125 1.265625 0.890625q0.421875 0.5625 0.578125 1.5l-1.609375 0.21875q-0.109375 -0.75 -0.640625 -1.171875q-0.515625 -0.421875 -1.46875 -0.421875q-1.140625 0 -1.625 0.375q-0.46875 0.375 -0.46875 0.875q0 0.3125 0.1875 0.578125q0.203125 0.265625 0.640625 0.4375q0.234375 0.09375 1.4375 0.421875q1.75 0.453125 2.4375 0.75q0.6875 0.296875 1.078125 0.859375q0.390625 0.5625 0.390625 1.40625q0 0.828125 -0.484375 1.546875q-0.46875 0.71875 -1.375 1.125q-0.90625 0.390625 -2.046875 0.390625q-1.875 0 -2.875 -0.78125q-0.984375 -0.78125 -1.25 -2.328125zm16.609375 -0.21875l1.6875 0.203125q-0.40625 1.484375 -1.484375 2.3125q-1.078125 0.8125 -2.765625 0.8125q-2.125 0 -3.375 -1.296875q-1.234375 -1.3125 -1.234375 -3.671875q0 -2.453125 1.25 -3.796875q1.265625 -1.34375 3.265625 -1.34375q1.9375 0 3.15625 1.328125q1.234375 1.3125 1.234375 3.703125q0 0.15625 0 0.4375l-7.21875 0q0.09375 1.59375 0.90625 2.453125q0.8125 0.84375 2.015625 0.84375q0.90625 0 1.546875 -0.46875q0.640625 -0.484375 1.015625 -1.515625zm-5.390625 -2.65625l5.40625 0q-0.109375 -1.21875 -0.625 -1.828125q-0.78125 -0.953125 -2.03125 -0.953125q-1.125 0 -1.90625 0.765625q-0.765625 0.75 -0.84375 2.015625zm15.453842 4.578125q-0.921875 0.765625 -1.765625 1.09375q-0.828125 0.3125 -1.796875 0.3125q-1.59375 0 -2.453125 -0.78125q-0.859375 -0.78125 -0.859375 -1.984375q0 -0.71875 0.328125 -1.296875q0.328125 -0.59375 0.84375 -0.9375q0.53125 -0.359375 1.1875 -0.546875q0.46875 -0.125 1.453125 -0.25q1.984375 -0.234375 2.921875 -0.5625q0.015625 -0.34375 0.015625 -0.421875q0 -1.0 -0.46875 -1.421875q-0.625 -0.546875 -1.875 -0.546875q-1.15625 0 -1.703125 0.40625q-0.546875 0.40625 -0.8125 1.421875l-1.609375 -0.21875q0.21875 -1.015625 0.71875 -1.640625q0.5 -0.640625 1.453125 -0.984375q0.953125 -0.34375 2.1875 -0.34375q1.25 0 2.015625 0.296875q0.78125 0.28125 1.140625 0.734375q0.375 0.4375 0.515625 1.109375q0.078125 0.421875 0.078125 1.515625l0 2.1875q0 2.28125 0.109375 2.890625q0.109375 0.59375 0.40625 1.15625l-1.703125 0q-0.265625 -0.515625 -0.328125 -1.1875zm-0.140625 -3.671875q-0.890625 0.375 -2.671875 0.625q-1.015625 0.140625 -1.4375 0.328125q-0.421875 0.1875 -0.65625 0.53125q-0.21875 0.34375 -0.21875 0.78125q0 0.65625 0.5 1.09375q0.5 0.4375 1.453125 0.4375q0.9375 0 1.671875 -0.40625q0.75 -0.421875 1.09375 -1.140625q0.265625 -0.5625 0.265625 -1.640625l0 -0.609375zm4.188217 4.859375l0 -9.671875l1.46875 0l0 1.46875q0.5625 -1.03125 1.03125 -1.359375q0.484375 -0.328125 1.0625 -0.328125q0.828125 0 1.6875 0.53125l-0.5625 1.515625q-0.609375 -0.359375 -1.203125 -0.359375q-0.546875 0 -0.96875 0.328125q-0.421875 0.328125 -0.609375 0.890625q-0.28125 0.875 -0.28125 1.921875l0 5.0625l-1.625 0zm12.540802 -3.546875l1.609375 0.21875q-0.265625 1.65625 -1.359375 2.609375q-1.078125 0.9375 -2.671875 0.9375q-1.984375 0 -3.1875 -1.296875q-1.203125 -1.296875 -1.203125 -3.71875q0 -1.578125 0.515625 -2.75q0.515625 -1.171875 1.578125 -1.75q1.0625 -0.59375 2.3125 -0.59375q1.578125 0 2.578125 0.796875q1.0 0.796875 1.28125 2.265625l-1.59375 0.234375q-0.234375 -0.96875 -0.8125 -1.453125q-0.578125 -0.5 -1.390625 -0.5q-1.234375 0 -2.015625 0.890625q-0.78125 0.890625 -0.78125 2.8125q0 1.953125 0.75 2.84375q0.75 0.875 1.953125 0.875q0.96875 0 1.609375 -0.59375q0.65625 -0.59375 0.828125 -1.828125zm3.015625 3.546875l0 -13.359375l1.640625 0l0 4.796875q1.140625 -1.328125 2.890625 -1.328125q1.078125 0 1.859375 0.421875q0.796875 0.421875 1.140625 1.171875q0.34375 0.75 0.34375 2.171875l0 6.125l-1.640625 0l0 -6.125q0 -1.234375 -0.53125 -1.796875q-0.53125 -0.5625 -1.515625 -0.5625q-0.71875 0 -1.359375 0.390625q-0.640625 0.375 -0.921875 1.015625q-0.265625 0.640625 -0.265625 1.78125l0 5.296875l-1.640625 0z" fill-rule="nonzero"/><path fill="#000000" fill-opacity="0.0" d="m267.26776 24.665329c-9.522583 -2.5398006 -23.25763 -5.62755 -29.498688 2.0c-4.970352 6.0745583 -1.5013123 15.649822 -1.5013123 23.498688c0 10.814301 -19.425018 20.455437 -13.498688 29.501312c9.966995 15.213501 31.877777 17.615082 48.498688 25.0c6.6199036 2.94133 2.473999 15.981781 8.501312 20.0c13.278442 8.85231 32.968506 -0.5995865 47.498688 6.0c6.6111755 3.002777 12.392883 15.424393 18.501312 11.498688c12.2812805 -7.8928223 14.0 -26.899826 14.0 -41.498688c0 -8.084686 3.2261658 -19.516327 -3.5013123 -24.0c-3.9226685 -2.614357 -8.343506 14.413422 -10.0 10.0c-6.266968 -16.697304 21.74466 -35.2038 14.501312 -51.501312c-4.274658 -9.61796 -20.571594 -7.4233017 -31.0 -6.0c-5.052185 0.68953705 -11.210419 6.4116135 -15.0 3.0c-5.417328 -4.8770123 3.2618103 -20.867298 -4.0 -21.498688c-14.808624 -1.2875586 -29.206116 6.8510876 -42.501312 13.498688" fill-rule="evenodd"/><path stroke="#000000" stroke-width="1.0" stroke-linejoin="round" stroke-linecap="butt" d="m267.26776 24.665329c-9.522583 -2.5398006 -23.25763 -5.62755 -29.498688 2.0c-4.970352 6.0745583 -1.5013123 15.649822 -1.5013123 23.498688c0 10.814301 -19.425018 20.455437 -13.498688 29.501312c9.966995 15.213501 31.877777 17.615082 48.498688 25.0c6.6199036 2.94133 2.473999 15.981781 8.501312 20.0c13.278442 8.85231 32.968506 -0.5995865 47.498688 6.0c6.6111755 3.002777 12.392883 15.424393 18.501312 11.498688c12.2812805 -7.8928223 14.0 -26.899826 14.0 -41.498688c0 -8.084686 3.2261658 -19.516327 -3.5013123 -24.0c-3.9226685 -2.614357 -8.343506 14.413422 -10.0 10.0c-6.266968 -16.697304 21.74466 -35.2038 14.501312 -51.501312c-4.274658 -9.61796 -20.571594 -7.4233017 -31.0 -6.0c-5.052185 0.68953705 -11.210419 6.4116135 -15.0 3.0c-5.417328 -4.8770123 3.2618103 -20.867298 -4.0 -21.498688c-14.808624 -1.2875586 -29.206116 6.8510876 -42.501312 13.498688" fill-rule="evenodd"/><path fill="#000000" fill-opacity="0.0" d="m225.42001 44.40424l152.53543 0l0 64.62993l-152.53543 0z" fill-rule="evenodd"/><path fill="#000000" d="m276.17477 71.324234l0 -13.359371l5.046875 0q1.328125 0 2.03125 0.125q0.96875 0.171875 1.640625 0.640625q0.671875 0.453125 1.078125 1.28125q0.40625 0.828125 0.40625 1.828125q0 1.703125 -1.09375 2.8906212q-1.078125 1.171875 -3.921875 1.171875l-3.421875 0l0 5.421875l-1.765625 0zm1.765625 -7.0l3.453125 0q1.71875 0 2.4375 -0.6406212q0.71875 -0.640625 0.71875 -1.796875q0 -0.84375 -0.421875 -1.4375q-0.421875 -0.59375 -1.125 -0.78125q-0.4375 -0.125 -1.640625 -0.125l-3.421875 0l0 4.781246zm10.459198 7.0l0 -9.671871l1.46875 0l0 1.46875q0.5625 -1.03125 1.03125 -1.359375q0.484375 -0.328125 1.0625 -0.328125q0.828125 0 1.6875 0.53125l-0.5625 1.515625q-0.609375 -0.359375 -1.203125 -0.359375q-0.546875 0 -0.96875 0.328125q-0.421875 0.328125 -0.609375 0.8906212q-0.28125 0.875 -0.28125 1.921875l0 5.0625l-1.625 0zm6.228302 -11.468746l0 -1.890625l1.640625 0l0 1.890625l-1.640625 0zm0 11.468746l0 -9.671871l1.640625 0l0 9.671871l-1.640625 0zm3.5354614 -4.84375q0 -2.6874962 1.484375 -3.9687462q1.25 -1.078125 3.046875 -1.078125q2.0 0 3.265625 1.3125q1.265625 1.2968712 1.265625 3.6093712q0 1.859375 -0.5625 2.9375q-0.5625 1.0625 -1.640625 1.65625q-1.0625 0.59375 -2.328125 0.59375q-2.03125 0 -3.28125 -1.296875q-1.25 -1.3125 -1.25 -3.765625zm1.6875 0q0 1.859375 0.796875 2.796875q0.8125 0.921875 2.046875 0.921875q1.21875 0 2.03125 -0.921875q0.8125 -0.9375 0.8125 -2.84375q0 -1.796875 -0.8125 -2.7187462q-0.8125 -0.921875 -2.03125 -0.921875q-1.234375 0 -2.046875 0.921875q-0.796875 0.9062462 -0.796875 2.7656212zm9.281952 4.84375l0 -9.671871l1.46875 0l0 1.46875q0.5625 -1.03125 1.03125 -1.359375q0.484375 -0.328125 1.0625 -0.328125q0.828125 0 1.6875 0.53125l-0.5625 1.515625q-0.609375 -0.359375 -1.203125 -0.359375q-0.546875 0 -0.96875 0.328125q-0.421875 0.328125 -0.609375 0.8906212q-0.28125 0.875 -0.28125 1.921875l0 5.0625l-1.625 0zm5.572052 -2.890625l1.625 -0.25q0.125 0.96875 0.75 1.5q0.625 0.515625 1.75 0.515625q1.125 0 1.671875 -0.453125q0.546875 -0.46875 0.546875 -1.09375q0 -0.546875 -0.484375 -0.875q-0.328125 -0.21875 -1.671875 -0.546875q-1.8125 -0.46875 -2.515625 -0.796875q-0.6875 -0.328125 -1.046875 -0.90625q-0.359375 -0.59375 -0.359375 -1.3125q0 -0.6406212 0.296875 -1.1874962q0.296875 -0.5625 0.8125 -0.921875q0.375 -0.28125 1.03125 -0.46875q0.671875 -0.203125 1.421875 -0.203125q1.140625 0 2.0 0.328125q0.859375 0.328125 1.265625 0.890625q0.421875 0.5625 0.578125 1.4999962l-1.609375 0.21875q-0.109375 -0.7499962 -0.640625 -1.1718712q-0.515625 -0.421875 -1.46875 -0.421875q-1.140625 0 -1.625 0.375q-0.46875 0.375 -0.46875 0.8749962q0 0.3125 0.1875 0.578125q0.203125 0.265625 0.640625 0.4375q0.234375 0.09375 1.4375 0.421875q1.75 0.453125 2.4375 0.75q0.6875 0.296875 1.078125 0.859375q0.390625 0.5625 0.390625 1.40625q0 0.828125 -0.484375 1.546875q-0.46875 0.71875 -1.375 1.125q-0.90625 0.390625 -2.046875 0.390625q-1.875 0 -2.875 -0.78125q-0.984375 -0.78125 -1.25 -2.328125zm8.75 3.125l3.875 -13.812496l1.3125 0l-3.859375 13.812496l-1.328125 0z" fill-rule="nonzero"/><path fill="#000000" d="m261.64514 93.724236l0 -13.359375l5.046875 0q1.328125 0 2.03125 0.125q0.96875 0.171875 1.640625 0.640625q0.671875 0.453125 1.078125 1.28125q0.40625 0.828125 0.40625 1.828125q0 1.703125 -1.09375 2.890625q-1.078125 1.171875 -3.921875 1.171875l-3.421875 0l0 5.421875l-1.765625 0zm1.765625 -7.0l3.453125 0q1.71875 0 2.4375 -0.640625q0.71875 -0.640625 0.71875 -1.796875q0 -0.84375 -0.421875 -1.4375q-0.421875 -0.59375 -1.125 -0.78125q-0.4375 -0.125 -1.640625 -0.125l-3.421875 0l0 4.78125zm10.459198 7.0l0 -9.671875l1.46875 0l0 1.46875q0.5625 -1.03125 1.03125 -1.359375q0.484375 -0.328125 1.0625 -0.328125q0.828125 0 1.6875 0.53125l-0.5625 1.515625q-0.609375 -0.359375 -1.203125 -0.359375q-0.546875 0 -0.96875 0.328125q-0.421875 0.328125 -0.609375 0.890625q-0.28125 0.875 -0.28125 1.921875l0 5.0625l-1.625 0zm12.853302 -3.109375l1.6875 0.203125q-0.40625 1.484375 -1.484375 2.3125q-1.078125 0.8125 -2.765625 0.8125q-2.125 0 -3.375 -1.296875q-1.234375 -1.3125 -1.234375 -3.671875q0 -2.453125 1.25 -3.796875q1.265625 -1.34375 3.265625 -1.34375q1.9375 0 3.15625 1.328125q1.234375 1.3125 1.234375 3.703125q0 0.15625 0 0.4375l-7.21875 0q0.09375 1.59375 0.90625 2.453125q0.8125 0.84375 2.015625 0.84375q0.90625 0 1.546875 -0.46875q0.640625 -0.484375 1.015625 -1.515625zm-5.390625 -2.65625l5.40625 0q-0.109375 -1.21875 -0.625 -1.828125q-0.78125 -0.953125 -2.03125 -0.953125q-1.125 0 -1.90625 0.765625q-0.765625 0.75 -0.84375 2.015625zm15.406952 5.765625l0 -1.21875q-0.90625 1.4375 -2.703125 1.4375q-1.15625 0 -2.125 -0.640625q-0.96875 -0.640625 -1.5 -1.78125q-0.53125 -1.140625 -0.53125 -2.625q0 -1.453125 0.484375 -2.625q0.484375 -1.1875 1.4375 -1.8125q0.96875 -0.625 2.171875 -0.625q0.875 0 1.546875 0.375q0.6875 0.359375 1.109375 0.953125l0 -4.796875l1.640625 0l0 13.359375l-1.53125 0zm-5.171875 -4.828125q0 1.859375 0.78125 2.78125q0.78125 0.921875 1.84375 0.921875q1.078125 0 1.828125 -0.875q0.75 -0.890625 0.75 -2.6875q0 -1.984375 -0.765625 -2.90625q-0.765625 -0.9375 -1.890625 -0.9375q-1.078125 0 -1.8125 0.890625q-0.734375 0.890625 -0.734375 2.8125zm9.281982 -6.640625l0 -1.890625l1.640625 0l0 1.890625l-1.640625 0zm0 11.46875l0 -9.671875l1.640625 0l0 9.671875l-1.640625 0zm10.457306 -3.546875l1.609375 0.21875q-0.265625 1.65625 -1.359375 2.609375q-1.078125 0.9375 -2.671875 0.9375q-1.984375 0 -3.1875 -1.296875q-1.203125 -1.296875 -1.203125 -3.71875q0 -1.578125 0.515625 -2.75q0.515625 -1.171875 1.578125 -1.75q1.0625 -0.59375 2.3125 -0.59375q1.578125 0 2.578125 0.796875q1.0 0.796875 1.28125 2.265625l-1.59375 0.234375q-0.234375 -0.96875 -0.8125 -1.453125q-0.578125 -0.5 -1.390625 -0.5q-1.234375 0 -2.015625 0.890625q-0.78125 0.890625 -0.78125 2.8125q0 1.953125 0.75 2.84375q0.75 0.875 1.953125 0.875q0.96875 0 1.609375 -0.59375q0.65625 -0.59375 0.828125 -1.828125zm6.59375 2.078125l0.234375 1.453125q-0.6875 0.140625 -1.234375 0.140625q-0.890625 0 -1.390625 -0.28125q-0.484375 -0.28125 -0.6875 -0.734375q-0.203125 -0.46875 -0.203125 -1.9375l0 -5.578125l-1.203125 0l0 -1.265625l1.203125 0l0 -2.390625l1.625 -0.984375l0 3.375l1.65625 0l0 1.265625l-1.65625 0l0 5.671875q0 0.6875 0.078125 0.890625q0.09375 0.203125 0.28125 0.328125q0.203125 0.109375 0.578125 0.109375q0.265625 0 0.71875 -0.0625zm1.6051941 -10.0l0 -1.890625l1.640625 0l0 1.890625l-1.640625 0zm0 11.46875l0 -9.671875l1.640625 0l0 9.671875l-1.640625 0zm3.535431 -4.84375q0 -2.6875 1.484375 -3.96875q1.25 -1.078125 3.046875 -1.078125q2.0 0 3.265625 1.3125q1.265625 1.296875 1.265625 3.609375q0 1.859375 -0.5625 2.9375q-0.5625 1.0625 -1.640625 1.65625q-1.0625 0.59375 -2.328125 0.59375q-2.03125 0 -3.28125 -1.296875q-1.25 -1.3125 -1.25 -3.765625zm1.6875 0q0 1.859375 0.796875 2.796875q0.8125 0.921875 2.046875 0.921875q1.21875 0 2.03125 -0.921875q0.8125 -0.9375 0.8125 -2.84375q0 -1.796875 -0.8125 -2.71875q-0.8125 -0.921875 -2.03125 -0.921875q-1.234375 0 -2.046875 0.921875q-0.796875 0.90625 -0.796875 2.765625zm9.297607 4.84375l0 -9.671875l1.46875 0l0 1.375q1.0625 -1.59375 3.078125 -1.59375q0.875 0 1.609375 0.3125q0.734375 0.3125 1.09375 0.828125q0.375 0.5 0.515625 1.203125q0.09375 0.453125 0.09375 1.59375l0 5.953125l-1.640625 0l0 -5.890625q0 -1.0 -0.203125 -1.484375q-0.1875 -0.5 -0.671875 -0.796875q-0.484375 -0.296875 -1.140625 -0.296875q-1.046875 0 -1.8125 0.671875q-0.75 0.65625 -0.75 2.515625l0 5.28125l-1.640625 0z" fill-rule="nonzero"/><path fill="#000000" fill-opacity="0.0" d="m419.6601 178.34383l125.41736 0l0 64.62993l-125.41736 0z" fill-rule="evenodd"/><path fill="#000000" d="m458.92368 205.26382l0 -13.359375l5.046875 0q1.328125 0 2.03125 0.125q0.96875 0.171875 1.640625 0.640625q0.671875 0.453125 1.078125 1.28125q0.40625 0.828125 0.40625 1.828125q0 1.703125 -1.09375 2.890625q-1.078125 1.171875 -3.921875 1.171875l-3.421875 0l0 5.421875l-1.765625 0zm1.765625 -7.0l3.453125 0q1.71875 0 2.4375 -0.640625q0.71875 -0.640625 0.71875 -1.796875q0 -0.84375 -0.421875 -1.4375q-0.421875 -0.59375 -1.125 -0.78125q-0.4375 -0.125 -1.640625 -0.125l-3.421875 0l0 4.78125zm9.865448 2.15625q0 -2.6875 1.484375 -3.96875q1.25 -1.078125 3.046875 -1.078125q2.0 0 3.265625 1.3125q1.265625 1.296875 1.265625 3.609375q0 1.859375 -0.5625 2.9375q-0.5625 1.0625 -1.640625 1.65625q-1.0625 0.59375 -2.328125 0.59375q-2.03125 0 -3.28125 -1.296875q-1.25 -1.3125 -1.25 -3.765625zm1.6875 0q0 1.859375 0.796875 2.796875q0.8125 0.921875 2.046875 0.921875q1.21875 0 2.03125 -0.921875q0.8125 -0.9375 0.8125 -2.84375q0 -1.796875 -0.8125 -2.71875q-0.8125 -0.921875 -2.03125 -0.921875q-1.234375 0 -2.046875 0.921875q-0.796875 0.90625 -0.796875 2.765625zm9.250702 4.84375l0 -13.359375l1.640625 0l0 13.359375l-1.640625 0zm4.1917114 -11.46875l0 -1.890625l1.640625 0l0 1.890625l-1.640625 0zm0 11.46875l0 -9.671875l1.640625 0l0 9.671875l-1.640625 0zm10.457306 -3.546875l1.609375 0.21875q-0.265625 1.65625 -1.359375 2.609375q-1.078125 0.9375 -2.671875 0.9375q-1.984375 0 -3.1875 -1.296875q-1.203125 -1.296875 -1.203125 -3.71875q0 -1.578125 0.515625 -2.75q0.515625 -1.171875 1.578125 -1.75q1.0625 -0.59375 2.3125 -0.59375q1.578125 0 2.578125 0.796875q1.0 0.796875 1.28125 2.265625l-1.59375 0.234375q-0.234375 -0.96875 -0.8125 -1.453125q-0.578125 -0.5 -1.390625 -0.5q-1.234375 0 -2.015625 0.890625q-0.78125 0.890625 -0.78125 2.8125q0 1.953125 0.75 2.84375q0.75 0.875 1.953125 0.875q0.96875 0 1.609375 -0.59375q0.65625 -0.59375 0.828125 -1.828125zm2.9375 7.265625l-0.1875 -1.53125q0.546875 0.140625 0.9375 0.140625q0.546875 0 0.875 -0.1875q0.328125 -0.171875 0.546875 -0.5q0.15625 -0.25 0.5 -1.21875q0.046875 -0.140625 0.140625 -0.40625l-3.671875 -9.6875l1.765625 0l2.015625 5.59375q0.390625 1.078125 0.703125 2.25q0.28125 -1.125 0.671875 -2.203125l2.078125 -5.640625l1.640625 0l-3.6875 9.828125q-0.59375 1.609375 -0.921875 2.203125q-0.4375 0.8125 -1.0 1.1875q-0.5625 0.375 -1.34375 0.375q-0.484375 0 -1.0625 -0.203125z" fill-rule="nonzero"/><path fill="#000000" d="m447.603 227.66383l5.125 -13.359375l1.90625 0l5.46875 13.359375l-2.015625 0l-1.546875 -4.046875l-5.59375 0l-1.46875 4.046875l-1.875 0zm3.859375 -5.484375l4.53125 0l-1.40625 -3.703125q-0.625 -1.6875 -0.9375 -2.765625q-0.265625 1.28125 -0.71875 2.546875l-1.46875 3.921875zm9.849823 5.484375l0 -9.671875l1.46875 0l0 1.375q1.0625 -1.59375 3.078125 -1.59375q0.875 0 1.609375 0.3125q0.734375 0.3125 1.09375 0.828125q0.375 0.5 0.515625 1.203125q0.09375 0.453125 0.09375 1.59375l0 5.953125l-1.640625 0l0 -5.890625q0 -1.0 -0.203125 -1.484375q-0.1875 -0.5 -0.671875 -0.796875q-0.484375 -0.296875 -1.140625 -0.296875q-1.046875 0 -1.8125 0.671875q-0.75 0.65625 -0.75 2.515625l0 5.28125l-1.640625 0zm16.688232 -1.1875q-0.921875 0.765625 -1.765625 1.09375q-0.828125 0.3125 -1.796875 0.3125q-1.59375 0 -2.453125 -0.78125q-0.859375 -0.78125 -0.859375 -1.984375q0 -0.71875 0.328125 -1.296875q0.328125 -0.59375 0.84375 -0.9375q0.53125 -0.359375 1.1875 -0.546875q0.46875 -0.125 1.453125 -0.25q1.984375 -0.234375 2.921875 -0.5625q0.015625 -0.34375 0.015625 -0.421875q0 -1.0 -0.46875 -1.421875q-0.625 -0.546875 -1.875 -0.546875q-1.15625 0 -1.703125 0.40625q-0.546875 0.40625 -0.8125 1.421875l-1.609375 -0.21875q0.21875 -1.015625 0.71875 -1.640625q0.5 -0.640625 1.453125 -0.984375q0.953125 -0.34375 2.1875 -0.34375q1.25 0 2.015625 0.296875q0.78125 0.28125 1.140625 0.734375q0.375 0.4375 0.515625 1.109375q0.078125 0.421875 0.078125 1.515625l0 2.1875q0 2.28125 0.109375 2.890625q0.109375 0.59375 0.40625 1.15625l-1.703125 0q-0.265625 -0.515625 -0.328125 -1.1875zm-0.140625 -3.671875q-0.890625 0.375 -2.671875 0.625q-1.015625 0.140625 -1.4375 0.328125q-0.421875 0.1875 -0.65625 0.53125q-0.21875 0.34375 -0.21875 0.78125q0 0.65625 0.5 1.09375q0.5 0.4375 1.453125 0.4375q0.9375 0 1.671875 -0.40625q0.75 -0.421875 1.09375 -1.140625q0.265625 -0.5625 0.265625 -1.640625l0 -0.609375zm4.156952 4.859375l0 -13.359375l1.640625 0l0 13.359375l-1.640625 0zm4.1135864 3.71875l-0.1875 -1.53125q0.546875 0.140625 0.9375 0.140625q0.546875 0 0.875 -0.1875q0.328125 -0.171875 0.546875 -0.5q0.15625 -0.25 0.5 -1.21875q0.046875 -0.140625 0.140625 -0.40625l-3.671875 -9.6875l1.765625 0l2.015625 5.59375q0.390625 1.078125 0.703125 2.25q0.28125 -1.125 0.671875 -2.203125l2.078125 -5.640625l1.640625 0l-3.6875 9.828125q-0.59375 1.609375 -0.921875 2.203125q-0.4375 0.8125 -1.0 1.1875q-0.5625 0.375 -1.34375 0.375q-0.484375 0 -1.0625 -0.203125zm8.75 -6.609375l1.625 -0.25q0.125 0.96875 0.75 1.5q0.625 0.515625 1.75 0.515625q1.125 0 1.671875 -0.453125q0.546875 -0.46875 0.546875 -1.09375q0 -0.546875 -0.484375 -0.875q-0.328125 -0.21875 -1.671875 -0.546875q-1.8125 -0.46875 -2.515625 -0.796875q-0.6875 -0.328125 -1.046875 -0.90625q-0.359375 -0.59375 -0.359375 -1.3125q0 -0.640625 0.296875 -1.1875q0.296875 -0.5625 0.8125 -0.921875q0.375 -0.28125 1.03125 -0.46875q0.671875 -0.203125 1.421875 -0.203125q1.140625 0 2.0 0.328125q0.859375 0.328125 1.265625 0.890625q0.421875 0.5625 0.578125 1.5l-1.609375 0.21875q-0.109375 -0.75 -0.640625 -1.171875q-0.515625 -0.421875 -1.46875 -0.421875q-1.140625 0 -1.625 0.375q-0.46875 0.375 -0.46875 0.875q0 0.3125 0.1875 0.578125q0.203125 0.265625 0.640625 0.4375q0.234375 0.09375 1.4375 0.421875q1.75 0.453125 2.4375 0.75q0.6875 0.296875 1.078125 0.859375q0.390625 0.5625 0.390625 1.40625q0 0.828125 -0.484375 1.546875q-0.46875 0.71875 -1.375 1.125q-0.90625 0.390625 -2.046875 0.390625q-1.875 0 -2.875 -0.78125q-0.984375 -0.78125 -1.25 -2.328125zm9.984375 -8.578125l0 -1.890625l1.640625 0l0 1.890625l-1.640625 0zm0 11.46875l0 -9.671875l1.640625 0l0 9.671875l-1.640625 0zm3.488556 -2.890625l1.625 -0.25q0.125 0.96875 0.75 1.5q0.625 0.515625 1.75 0.515625q1.125 0 1.671875 -0.453125q0.546875 -0.46875 0.546875 -1.09375q0 -0.546875 -0.484375 -0.875q-0.328125 -0.21875 -1.671875 -0.546875q-1.8125 -0.46875 -2.515625 -0.796875q-0.6875 -0.328125 -1.046875 -0.90625q-0.359375 -0.59375 -0.359375 -1.3125q0 -0.640625 0.296875 -1.1875q0.296875 -0.5625 0.8125 -0.921875q0.375 -0.28125 1.03125 -0.46875q0.671875 -0.203125 1.421875 -0.203125q1.140625 0 2.0 0.328125q0.859375 0.328125 1.265625 0.890625q0.421875 0.5625 0.578125 1.5l-1.609375 0.21875q-0.109375 -0.75 -0.640625 -1.171875q-0.515625 -0.421875 -1.46875 -0.421875q-1.140625 0 -1.625 0.375q-0.46875 0.375 -0.46875 0.875q0 0.3125 0.1875 0.578125q0.203125 0.265625 0.640625 0.4375q0.234375 0.09375 1.4375 0.421875q1.75 0.453125 2.4375 0.75q0.6875 0.296875 1.078125 0.859375q0.390625 0.5625 0.390625 1.40625q0 0.828125 -0.484375 1.546875q-0.46875 0.71875 -1.375 1.125q-0.90625 0.390625 -2.046875 0.390625q-1.875 0 -2.875 -0.78125q-0.984375 -0.78125 -1.25 -2.328125z" fill-rule="nonzero"/><path fill="#000000" fill-opacity="0.0" d="m500.1427 162.79286c-7.0710754 2.3570251 -17.667694 2.065216 -22.0 -4.0c-2.8606262 -4.0048676 -2.4303894 -11.172165 -7.0 -13.0c-8.36203 -3.3448029 -19.967346 -4.626114 -27.0 1.0c-8.474426 6.779541 -16.416412 14.6940155 -22.0 24.0c-3.162262 5.270462 1.497467 15.2512665 -4.0 18.0c-12.256531 6.1282654 -28.350891 -8.270462 -41.0 -3.0c-4.480072 1.8666992 -5.427307 9.361221 -4.0 14.0c5.837433 18.97168 29.331818 26.81363 45.0 39.0c14.261841 11.092545 17.11316 34.394638 33.0 43.000015c21.202515 11.48468 50.048187 2.9780884 72.0 -7.0c15.550415 -7.06839 2.9215698 -36.92157 15.0 -49.000015c3.1622925 -3.1622772 8.507874 8.793732 12.0 6.0c11.043152 -8.834518 5.3273315 -27.87387 6.0 -42.0c0.67059326 -14.082901 4.9694214 -32.030594 -5.0 -42.0c-13.274841 -13.274872 -35.2265 16.0 -54.0 16.0" fill-rule="evenodd"/><path stroke="#000000" stroke-width="1.0" stroke-linejoin="round" stroke-linecap="butt" d="m500.1427 162.79286c-7.0710754 2.3570251 -17.667694 2.065216 -22.0 -4.0c-2.8606262 -4.0048676 -2.4303894 -11.172165 -7.0 -13.0c-8.36203 -3.3448029 -19.967346 -4.626114 -27.0 1.0c-8.474426 6.779541 -16.416412 14.6940155 -22.0 24.0c-3.162262 5.270462 1.497467 15.2512665 -4.0 18.0c-12.256531 6.1282654 -28.350891 -8.270462 -41.0 -3.0c-4.480072 1.8666992 -5.427307 9.361221 -4.0 14.0c5.837433 18.97168 29.331818 26.81363 45.0 39.0c14.261841 11.092545 17.11316 34.394638 33.0 43.000015c21.202515 11.48468 50.048187 2.9780884 72.0 -7.0c15.550415 -7.06839 2.9215698 -36.92157 15.0 -49.000015c3.1622925 -3.1622772 8.507874 8.793732 12.0 6.0c11.043152 -8.834518 5.3273315 -27.87387 6.0 -42.0c0.67059326 -14.082901 4.9694214 -32.030594 -5.0 -42.0c-13.274841 -13.274872 -35.2265 16.0 -54.0 16.0" fill-rule="evenodd"/><path fill="#ffffff" d="m271.14172 225.17586l6.748047 -32.0l20.24408 0l-6.7480164 32.0z" fill-rule="evenodd"/><path stroke="#ffffff" stroke-width="1.0" stroke-linejoin="round" stroke-linecap="butt" d="m271.14172 225.17586l6.748047 -32.0l20.24408 0l-6.7480164 32.0z" fill-rule="evenodd"/><path fill="#000000" fill-opacity="0.0" d="m276.7953 193.42783l-6.3937073 34.11023" fill-rule="evenodd"/><path stroke="#000000" stroke-width="1.0" stroke-linejoin="round" stroke-linecap="butt" d="m276.7953 193.42783l-6.3937073 34.11023" fill-rule="evenodd"/><path fill="#000000" fill-opacity="0.0" d="m298.13254 193.42783l-6.3937073 34.11023" fill-rule="evenodd"/><path stroke="#000000" stroke-width="1.0" stroke-linejoin="round" stroke-linecap="butt" d="m298.13254 193.42783l-6.3937073 34.11023" fill-rule="evenodd"/><path fill="#ffffff" d="m159.57639 66.75769l19.885925 25.965202l-13.186996 15.361221l-19.88594 -25.96521z" fill-rule="evenodd"/><path stroke="#ffffff" stroke-width="1.0" stroke-linejoin="round" stroke-linecap="butt" d="m159.57639 66.75769l19.885925 25.965202l-13.186996 15.361221l-19.88594 -25.96521z" fill-rule="evenodd"/><path fill="#000000" fill-opacity="0.0" d="m179.98407 91.728264l-21.717987 -27.070946" fill-rule="evenodd"/><path stroke="#000000" stroke-width="1.0" stroke-linejoin="round" stroke-linecap="butt" d="m179.98407 91.728264l-21.717987 -27.070946" fill-rule="evenodd"/><path fill="#000000" fill-opacity="0.0" d="m166.08498 107.91898l-21.717987 -27.070946" fill-rule="evenodd"/><path stroke="#000000" stroke-width="1.0" stroke-linejoin="round" stroke-linecap="butt" d="m166.08498 107.91898l-21.717987 -27.070946" fill-rule="evenodd"/><path fill="#ffffff" d="m438.28314 57.880215l-8.719238 31.520824l-20.205627 -1.2551346l8.719208 -31.520824z" fill-rule="evenodd"/><path stroke="#ffffff" stroke-width="1.0" stroke-linejoin="round" stroke-linecap="butt" d="m438.28314 57.880215l-8.719238 31.520824l-20.205627 -1.2551346l8.719208 -31.520824z" fill-rule="evenodd"/><path fill="#000000" fill-opacity="0.0" d="m430.67194 89.21741l8.496399 -33.649017" fill-rule="evenodd"/><path stroke="#000000" stroke-width="1.0" stroke-linejoin="round" stroke-linecap="butt" d="m430.67194 89.21741l8.496399 -33.649017" fill-rule="evenodd"/><path fill="#000000" fill-opacity="0.0" d="m409.3752 87.89449l8.496399 -33.649017" fill-rule="evenodd"/><path stroke="#000000" stroke-width="1.0" stroke-linejoin="round" stroke-linecap="butt" d="m409.3752 87.89449l8.496399 -33.649017" fill-rule="evenodd"/><path fill="#000000" fill-opacity="0.0" d="m191.5182 209.27286c0 -13.83194 8.944504 -32.95685 -1.9737549 -41.448822c-10.706238 -8.327072 -35.74893 22.910217 -39.475067 9.868759c-3.6696167 -12.843674 16.213364 -21.239182 24.67192 -31.577423c1.8631744 -2.2772064 6.0280304 -5.814499 3.9475098 -7.8950195c-6.9782715 -6.9782715 -21.081879 -4.97258 -29.606308 0c-7.017288 4.0934296 -12.638153 13.637772 -20.721786 12.829407c-13.354347 -1.335434 -27.684479 -4.730957 -37.994743 -13.322845c-2.6654968 -2.2212372 -2.104454 -7.8848724 -5.427826 -8.881882c-9.185516 -2.755661 -19.349731 6.823807 -24.669289 14.803146c-8.690338 13.035507 29.40358 11.818741 41.939636 21.215225c1.5006027 1.1247864 4.3648148 2.80159 3.4540634 4.4409485c-7.944557 14.300201 -32.095535 6.581909 -48.35433 8.388443c-10.34026 1.1489258 -21.655163 9.644272 -24.178478 19.737534c-2.8435555 11.374222 16.029991 17.990234 19.737534 29.11287c4.429081 13.287247 -0.8609886 29.792496 6.9081345 41.446182c5.303871 7.9558105 22.6325 -3.7583923 25.656166 -12.8293915c1.9356995 -5.807083 -4.1100006 -17.581238 1.9737549 -18.257217c14.281258 -1.5868073 7.2985992 27.817047 11.842522 41.448822c3.0810852 9.243256 17.395866 10.855652 27.139107 10.855652c10.654411 0 10.581215 -22.545135 4.9343796 -31.580078c-3.2254333 -5.160675 -11.965309 -17.981384 -5.921257 -17.270325c6.4842606 0.7628479 9.947563 8.461731 14.8005295 12.8293915c11.328369 10.195541 25.445175 17.583664 39.968506 22.204727c4.4248505 1.407898 8.364609 6.703491 12.8293915 5.427826c10.670212 -3.048645 -0.24983215 -23.689178 -6.908142 -32.56694c-4.1869507 -5.582611 -13.55484 -7.9374237 -14.803146 -14.803146c-1.2817078 -7.0493927 4.5517883 -15.988831 11.349091 -18.254593c4.1224976 -1.3741608 8.276352 -9.487427 11.349075 -6.414688" fill-rule="evenodd"/><path stroke="#000000" stroke-width="1.0" stroke-linejoin="round" stroke-linecap="butt" d="m191.5182 209.27286c0 -13.83194 8.944504 -32.95685 -1.9737549 -41.448822c-10.706238 -8.327072 -35.74893 22.910217 -39.475067 9.868759c-3.6696167 -12.843674 16.213364 -21.239182 24.67192 -31.577423c1.8631744 -2.2772064 6.0280304 -5.814499 3.9475098 -7.8950195c-6.9782715 -6.9782715 -21.081879 -4.97258 -29.606308 0c-7.017288 4.0934296 -12.638153 13.637772 -20.721786 12.829407c-13.354347 -1.335434 -27.684479 -4.730957 -37.994743 -13.322845c-2.6654968 -2.2212372 -2.104454 -7.8848724 -5.427826 -8.881882c-9.185516 -2.755661 -19.349731 6.823807 -24.669289 14.803146c-8.690338 13.035507 29.40358 11.818741 41.939636 21.215225c1.5006027 1.1247864 4.3648148 2.80159 3.4540634 4.4409485c-7.944557 14.300201 -32.095535 6.581909 -48.35433 8.388443c-10.34026 1.1489258 -21.655163 9.644272 -24.178478 19.737534c-2.8435555 11.374222 16.029991 17.990234 19.737534 29.11287c4.429081 13.287247 -0.8609886 29.792496 6.9081345 41.446182c5.303871 7.9558105 22.6325 -3.7583923 25.656166 -12.8293915c1.9356995 -5.807083 -4.1100006 -17.581238 1.9737549 -18.257217c14.281258 -1.5868073 7.2985992 27.817047 11.842522 41.448822c3.0810852 9.243256 17.395866 10.855652 27.139107 10.855652c10.654411 0 10.581215 -22.545135 4.9343796 -31.580078c-3.2254333 -5.160675 -11.965309 -17.981384 -5.921257 -17.270325c6.4842606 0.7628479 9.947563 8.461731 14.8005295 12.8293915c11.328369 10.195541 25.445175 17.583664 39.968506 22.204727c4.4248505 1.407898 8.364609 6.703491 12.8293915 5.427826c10.670212 -3.048645 -0.24983215 -23.689178 -6.908142 -32.56694c-4.1869507 -5.582611 -13.55484 -7.9374237 -14.803146 -14.803146c-1.2817078 -7.0493927 4.5517883 -15.988831 11.349091 -18.254593c4.1224976 -1.3741608 8.276352 -9.487427 11.349075 -6.414688" fill-rule="evenodd"/></g></svg>