<?xml version="1.0" encoding="UTF-8"?>
<svg xmlns="http://www.w3.org/2000/svg" xmlns:xlink="http://www.w3.org/1999/xlink" width="756pt" height="360pt" viewBox="0 0 756 360" version="1.1">
<g id="surface29">
<rect x="0" y="0" width="756" height="360" style="fill:rgb(100%,100%,100%);fill-opacity:1;stroke:none;"/>
<path style="fill:none;stroke-width:6.40187;stroke-linecap:butt;stroke-linejoin:round;stroke:rgb(90.196078%,25.490196%,45.098039%);stroke-opacity:0.298039;stroke-miterlimit:10;" d="M -779.320312 487.273438 L 1523.660156 -100.164062 "/>
<path style="fill:none;stroke-width:0.708661;stroke-linecap:round;stroke-linejoin:round;stroke:rgb(18.431373%,30.980392%,30.980392%);stroke-opacity:1;stroke-miterlimit:10;" d="M 375.375 164.523438 C 375.375 168.253906 372.347656 171.28125 368.617188 171.28125 C 364.886719 171.28125 361.863281 168.253906 361.863281 164.523438 C 361.863281 160.792969 364.886719 157.765625 368.617188 157.765625 C 372.347656 157.765625 375.375 160.792969 375.375 164.523438 "/>
<path style="fill-rule:nonzero;fill:rgb(18.431373%,30.980392%,30.980392%);fill-opacity:1;stroke-width:0.708661;stroke-linecap:round;stroke-linejoin:round;stroke:rgb(18.431373%,30.980392%,30.980392%);stroke-opacity:1;stroke-miterlimit:10;" d="M 198.246094 154.695312 C 198.246094 158.429688 195.222656 161.453125 191.488281 161.453125 C 187.757812 161.453125 184.734375 158.429688 184.734375 154.695312 C 184.734375 150.964844 187.757812 147.941406 191.488281 147.941406 C 195.222656 147.941406 198.246094 150.964844 198.246094 154.695312 "/>
<path style="fill:none;stroke-width:0.708661;stroke-linecap:round;stroke-linejoin:round;stroke:rgb(18.431373%,30.980392%,30.980392%);stroke-opacity:1;stroke-miterlimit:10;" d="M 453.222656 347.894531 C 453.222656 351.625 450.195312 354.648438 446.464844 354.648438 C 442.734375 354.648438 439.710938 351.625 439.710938 347.894531 C 439.710938 344.164062 442.734375 341.136719 446.464844 341.136719 C 450.195312 341.136719 453.222656 344.164062 453.222656 347.894531 "/>
<path style="fill:none;stroke-width:0.708661;stroke-linecap:round;stroke-linejoin:round;stroke:rgb(18.431373%,30.980392%,30.980392%);stroke-opacity:1;stroke-miterlimit:10;" d="M 397.449219 233.535156 C 397.449219 237.265625 394.425781 240.289062 390.695312 240.289062 C 386.964844 240.289062 383.9375 237.265625 383.9375 233.535156 C 383.9375 229.800781 386.964844 226.777344 390.695312 226.777344 C 394.425781 226.777344 397.449219 229.800781 397.449219 233.535156 "/>
<path style="fill:none;stroke-width:0.708661;stroke-linecap:round;stroke-linejoin:round;stroke:rgb(18.431373%,30.980392%,30.980392%);stroke-opacity:1;stroke-miterlimit:10;" d="M 315.292969 145.054688 C 315.292969 148.785156 312.269531 151.8125 308.539062 151.8125 C 304.808594 151.8125 301.78125 148.785156 301.78125 145.054688 C 301.78125 141.324219 304.808594 138.296875 308.539062 138.296875 C 312.269531 138.296875 315.292969 141.324219 315.292969 145.054688 "/>
<path style="fill:none;stroke-width:0.708661;stroke-linecap:round;stroke-linejoin:round;stroke:rgb(18.431373%,30.980392%,30.980392%);stroke-opacity:1;stroke-miterlimit:10;" d="M 402.832031 212.933594 C 402.832031 216.664062 399.808594 219.691406 396.078125 219.691406 C 392.347656 219.691406 389.320312 216.664062 389.320312 212.933594 C 389.320312 209.203125 392.347656 206.175781 396.078125 206.175781 C 399.808594 206.175781 402.832031 209.203125 402.832031 212.933594 "/>
<path style="fill:none;stroke-width:0.708661;stroke-linecap:round;stroke-linejoin:round;stroke:rgb(18.431373%,30.980392%,30.980392%);stroke-opacity:1;stroke-miterlimit:10;" d="M 396.246094 146.480469 C 396.246094 150.210938 393.21875 153.234375 389.488281 153.234375 C 385.757812 153.234375 382.730469 150.210938 382.730469 146.480469 C 382.730469 142.746094 385.757812 139.722656 389.488281 139.722656 C 393.21875 139.722656 396.246094 142.746094 396.246094 146.480469 "/>
<path style="fill:none;stroke-width:0.708661;stroke-linecap:round;stroke-linejoin:round;stroke:rgb(18.431373%,30.980392%,30.980392%);stroke-opacity:1;stroke-miterlimit:10;" d="M 283.292969 286.058594 C 283.292969 289.789062 280.265625 292.8125 276.535156 292.8125 C 272.804688 292.8125 269.78125 289.789062 269.78125 286.058594 C 269.78125 282.324219 272.804688 279.300781 276.535156 279.300781 C 280.265625 279.300781 283.292969 282.324219 283.292969 286.058594 "/>
<path style="fill-rule:nonzero;fill:rgb(18.431373%,30.980392%,30.980392%);fill-opacity:1;stroke-width:0.708661;stroke-linecap:round;stroke-linejoin:round;stroke:rgb(18.431373%,30.980392%,30.980392%);stroke-opacity:1;stroke-miterlimit:10;" d="M 483.957031 187.648438 C 483.957031 191.378906 480.929688 194.40625 477.199219 194.40625 C 473.46875 194.40625 470.441406 191.378906 470.441406 187.648438 C 470.441406 183.917969 473.46875 180.890625 477.199219 180.890625 C 480.929688 180.890625 483.957031 183.917969 483.957031 187.648438 "/>
<path style="fill-rule:nonzero;fill:rgb(18.431373%,30.980392%,30.980392%);fill-opacity:1;stroke-width:0.708661;stroke-linecap:round;stroke-linejoin:round;stroke:rgb(18.431373%,30.980392%,30.980392%);stroke-opacity:1;stroke-miterlimit:10;" d="M 582.179688 67.53125 C 582.179688 71.261719 579.15625 74.285156 575.421875 74.285156 C 571.691406 74.285156 568.667969 71.261719 568.667969 67.53125 C 568.667969 63.796875 571.691406 60.773438 575.421875 60.773438 C 579.15625 60.773438 582.179688 63.796875 582.179688 67.53125 "/>
<path style="fill:none;stroke-width:0.708661;stroke-linecap:round;stroke-linejoin:round;stroke:rgb(18.431373%,30.980392%,30.980392%);stroke-opacity:1;stroke-miterlimit:10;" d="M 301.566406 303.070312 C 301.566406 306.800781 298.542969 309.824219 294.808594 309.824219 C 291.078125 309.824219 288.054688 306.800781 288.054688 303.070312 C 288.054688 299.339844 291.078125 296.3125 294.808594 296.3125 C 298.542969 296.3125 301.566406 299.339844 301.566406 303.070312 "/>
<path style="fill:none;stroke-width:0.708661;stroke-linecap:round;stroke-linejoin:round;stroke:rgb(18.431373%,30.980392%,30.980392%);stroke-opacity:1;stroke-miterlimit:10;" d="M 257.53125 182.324219 C 257.53125 186.054688 254.507812 189.082031 250.773438 189.082031 C 247.042969 189.082031 244.019531 186.054688 244.019531 182.324219 C 244.019531 178.59375 247.042969 175.566406 250.773438 175.566406 C 254.507812 175.566406 257.53125 178.59375 257.53125 182.324219 "/>
<path style="fill-rule:nonzero;fill:rgb(18.431373%,30.980392%,30.980392%);fill-opacity:1;stroke-width:0.708661;stroke-linecap:round;stroke-linejoin:round;stroke:rgb(18.431373%,30.980392%,30.980392%);stroke-opacity:1;stroke-miterlimit:10;" d="M 403.332031 231.351562 C 403.332031 235.082031 400.308594 238.105469 396.578125 238.105469 C 392.84375 238.105469 389.820312 235.082031 389.820312 231.351562 C 389.820312 227.621094 392.84375 224.59375 396.578125 224.59375 C 400.308594 224.59375 403.332031 227.621094 403.332031 231.351562 "/>
<path style="fill:none;stroke-width:0.708661;stroke-linecap:round;stroke-linejoin:round;stroke:rgb(18.431373%,30.980392%,30.980392%);stroke-opacity:1;stroke-miterlimit:10;" d="M 310.117188 224.738281 C 310.117188 228.46875 307.09375 231.492188 303.363281 231.492188 C 299.632812 231.492188 296.605469 228.46875 296.605469 224.738281 C 296.605469 221.007812 299.632812 217.980469 303.363281 217.980469 C 307.09375 217.980469 310.117188 221.007812 310.117188 224.738281 "/>
<path style="fill-rule:nonzero;fill:rgb(18.431373%,30.980392%,30.980392%);fill-opacity:1;stroke-width:0.708661;stroke-linecap:round;stroke-linejoin:round;stroke:rgb(18.431373%,30.980392%,30.980392%);stroke-opacity:1;stroke-miterlimit:10;" d="M 593.003906 148.667969 C 593.003906 152.402344 589.980469 155.425781 586.25 155.425781 C 582.519531 155.425781 579.492188 152.402344 579.492188 148.667969 C 579.492188 144.9375 582.519531 141.914062 586.25 141.914062 C 589.980469 141.914062 593.003906 144.9375 593.003906 148.667969 "/>
<path style="fill-rule:nonzero;fill:rgb(18.431373%,30.980392%,30.980392%);fill-opacity:1;stroke-width:0.708661;stroke-linecap:round;stroke-linejoin:round;stroke:rgb(18.431373%,30.980392%,30.980392%);stroke-opacity:1;stroke-miterlimit:10;" d="M 298.988281 113.898438 C 298.988281 117.628906 295.964844 120.652344 292.230469 120.652344 C 288.5 120.652344 285.476562 117.628906 285.476562 113.898438 C 285.476562 110.164062 288.5 107.140625 292.230469 107.140625 C 295.964844 107.140625 298.988281 110.164062 298.988281 113.898438 "/>
<path style="fill:none;stroke-width:0.708661;stroke-linecap:round;stroke-linejoin:round;stroke:rgb(18.431373%,30.980392%,30.980392%);stroke-opacity:1;stroke-miterlimit:10;" d="M 471.117188 144.777344 C 471.117188 148.507812 468.09375 151.53125 464.363281 151.53125 C 460.628906 151.53125 457.605469 148.507812 457.605469 144.777344 C 457.605469 141.046875 460.628906 138.019531 464.363281 138.019531 C 468.09375 138.019531 471.117188 141.046875 471.117188 144.777344 "/>
<path style="fill-rule:nonzero;fill:rgb(18.431373%,30.980392%,30.980392%);fill-opacity:1;stroke-width:0.708661;stroke-linecap:round;stroke-linejoin:round;stroke:rgb(18.431373%,30.980392%,30.980392%);stroke-opacity:1;stroke-miterlimit:10;" d="M 568.078125 216.714844 C 568.078125 220.445312 565.054688 223.46875 561.324219 223.46875 C 557.589844 223.46875 554.566406 220.445312 554.566406 216.714844 C 554.566406 212.984375 557.589844 209.957031 561.324219 209.957031 C 565.054688 209.957031 568.078125 212.984375 568.078125 216.714844 "/>
<path style="fill:none;stroke-width:0.708661;stroke-linecap:round;stroke-linejoin:round;stroke:rgb(18.431373%,30.980392%,30.980392%);stroke-opacity:1;stroke-miterlimit:10;" d="M 727.863281 82.769531 C 727.863281 86.5 724.835938 89.523438 721.105469 89.523438 C 717.375 89.523438 714.351562 86.5 714.351562 82.769531 C 714.351562 79.039062 717.375 76.011719 721.105469 76.011719 C 724.835938 76.011719 727.863281 79.039062 727.863281 82.769531 "/>
<path style="fill:none;stroke-width:0.708661;stroke-linecap:round;stroke-linejoin:round;stroke:rgb(18.431373%,30.980392%,30.980392%);stroke-opacity:1;stroke-miterlimit:10;" d="M 425.90625 221.523438 C 425.90625 225.253906 422.878906 228.28125 419.148438 228.28125 C 415.417969 228.28125 412.394531 225.253906 412.394531 221.523438 C 412.394531 217.792969 415.417969 214.769531 419.148438 214.769531 C 422.878906 214.769531 425.90625 217.792969 425.90625 221.523438 "/>
<path style="fill:none;stroke-width:0.708661;stroke-linecap:round;stroke-linejoin:round;stroke:rgb(18.431373%,30.980392%,30.980392%);stroke-opacity:1;stroke-miterlimit:10;" d="M 614.90625 175.554688 C 614.90625 179.285156 611.878906 182.308594 608.148438 182.308594 C 604.417969 182.308594 601.390625 179.285156 601.390625 175.554688 C 601.390625 171.824219 604.417969 168.796875 608.148438 168.796875 C 611.878906 168.796875 614.90625 171.824219 614.90625 175.554688 "/>
<path style="fill-rule:nonzero;fill:rgb(18.431373%,30.980392%,30.980392%);fill-opacity:1;stroke-width:0.708661;stroke-linecap:round;stroke-linejoin:round;stroke:rgb(18.431373%,30.980392%,30.980392%);stroke-opacity:1;stroke-miterlimit:10;" d="M 450.296875 238.242188 C 450.296875 241.972656 447.273438 245 443.539062 245 C 439.808594 245 436.785156 241.972656 436.785156 238.242188 C 436.785156 234.511719 439.808594 231.488281 443.539062 231.488281 C 447.273438 231.488281 450.296875 234.511719 450.296875 238.242188 "/>
<path style="fill-rule:nonzero;fill:rgb(18.431373%,30.980392%,30.980392%);fill-opacity:1;stroke-width:0.708661;stroke-linecap:round;stroke-linejoin:round;stroke:rgb(18.431373%,30.980392%,30.980392%);stroke-opacity:1;stroke-miterlimit:10;" d="M 390.984375 223.429688 C 390.984375 227.160156 387.957031 230.1875 384.226562 230.1875 C 380.496094 230.1875 377.472656 227.160156 377.472656 223.429688 C 377.472656 219.699219 380.496094 216.675781 384.226562 216.675781 C 387.957031 216.675781 390.984375 219.699219 390.984375 223.429688 "/>
<path style="fill:none;stroke-width:0.708661;stroke-linecap:round;stroke-linejoin:round;stroke:rgb(18.431373%,30.980392%,30.980392%);stroke-opacity:1;stroke-miterlimit:10;" d="M 426.105469 206.152344 C 426.105469 209.882812 423.078125 212.90625 419.347656 212.90625 C 415.617188 212.90625 412.59375 209.882812 412.59375 206.152344 C 412.59375 202.417969 415.617188 199.394531 419.347656 199.394531 C 423.078125 199.394531 426.105469 202.417969 426.105469 206.152344 "/>
<path style="fill:none;stroke-width:0.708661;stroke-linecap:round;stroke-linejoin:round;stroke:rgb(18.431373%,30.980392%,30.980392%);stroke-opacity:1;stroke-miterlimit:10;" d="M 570.476562 183.125 C 570.476562 186.855469 567.449219 189.878906 563.71875 189.878906 C 559.988281 189.878906 556.964844 186.855469 556.964844 183.125 C 556.964844 179.394531 559.988281 176.367188 563.71875 176.367188 C 567.449219 176.367188 570.476562 179.394531 570.476562 183.125 "/>
<path style="fill-rule:nonzero;fill:rgb(18.431373%,30.980392%,30.980392%);fill-opacity:1;stroke-width:0.708661;stroke-linecap:round;stroke-linejoin:round;stroke:rgb(18.431373%,30.980392%,30.980392%);stroke-opacity:1;stroke-miterlimit:10;" d="M 408.785156 198.304688 C 408.785156 202.035156 405.761719 205.058594 402.03125 205.058594 C 398.300781 205.058594 395.273438 202.035156 395.273438 198.304688 C 395.273438 194.570312 398.300781 191.546875 402.03125 191.546875 C 405.761719 191.546875 408.785156 194.570312 408.785156 198.304688 "/>
<path style="fill:none;stroke-width:0.708661;stroke-linecap:round;stroke-linejoin:round;stroke:rgb(18.431373%,30.980392%,30.980392%);stroke-opacity:1;stroke-miterlimit:10;" d="M 360.914062 143.546875 C 360.914062 147.277344 357.890625 150.304688 354.160156 150.304688 C 350.429688 150.304688 347.402344 147.277344 347.402344 143.546875 C 347.402344 139.816406 350.429688 136.792969 354.160156 136.792969 C 357.890625 136.792969 360.914062 139.816406 360.914062 143.546875 "/>
<path style="fill:none;stroke-width:0.708661;stroke-linecap:round;stroke-linejoin:round;stroke:rgb(18.431373%,30.980392%,30.980392%);stroke-opacity:1;stroke-miterlimit:10;" d="M 266.816406 208.746094 C 266.816406 212.476562 263.792969 215.5 260.058594 215.5 C 256.328125 215.5 253.304688 212.476562 253.304688 208.746094 C 253.304688 205.011719 256.328125 201.988281 260.058594 201.988281 C 263.792969 201.988281 266.816406 205.011719 266.816406 208.746094 "/>
<path style="fill:none;stroke-width:0.708661;stroke-linecap:round;stroke-linejoin:round;stroke:rgb(18.431373%,30.980392%,30.980392%);stroke-opacity:1;stroke-miterlimit:10;" d="M 128.78125 307.660156 C 128.78125 311.390625 125.757812 314.417969 122.027344 314.417969 C 118.296875 314.417969 115.269531 311.390625 115.269531 307.660156 C 115.269531 303.929688 118.296875 300.902344 122.027344 300.902344 C 125.757812 300.902344 128.78125 303.929688 128.78125 307.660156 "/>
<path style="fill:none;stroke-width:0.708661;stroke-linecap:round;stroke-linejoin:round;stroke:rgb(18.431373%,30.980392%,30.980392%);stroke-opacity:1;stroke-miterlimit:10;" d="M 543.925781 48.527344 C 543.925781 52.257812 540.902344 55.28125 537.171875 55.28125 C 533.4375 55.28125 530.414062 52.257812 530.414062 48.527344 C 530.414062 44.792969 533.4375 41.769531 537.171875 41.769531 C 540.902344 41.769531 543.925781 44.792969 543.925781 48.527344 "/>
<path style="fill:none;stroke-width:0.708661;stroke-linecap:round;stroke-linejoin:round;stroke:rgb(18.431373%,30.980392%,30.980392%);stroke-opacity:1;stroke-miterlimit:10;" d="M 290.898438 195.316406 C 290.898438 199.046875 287.875 202.074219 284.140625 202.074219 C 280.410156 202.074219 277.386719 199.046875 277.386719 195.316406 C 277.386719 191.585938 280.410156 188.558594 284.140625 188.558594 C 287.875 188.558594 290.898438 191.585938 290.898438 195.316406 "/>
<path style="fill:none;stroke-width:0.708661;stroke-linecap:round;stroke-linejoin:round;stroke:rgb(18.431373%,30.980392%,30.980392%);stroke-opacity:1;stroke-miterlimit:10;" d="M 439.464844 249.867188 C 439.464844 253.601562 436.441406 256.625 432.710938 256.625 C 428.976562 256.625 425.953125 253.601562 425.953125 249.867188 C 425.953125 246.136719 428.976562 243.113281 432.710938 243.113281 C 436.441406 243.113281 439.464844 246.136719 439.464844 249.867188 "/>
<path style="fill-rule:nonzero;fill:rgb(18.431373%,30.980392%,30.980392%);fill-opacity:1;stroke-width:0.708661;stroke-linecap:round;stroke-linejoin:round;stroke:rgb(18.431373%,30.980392%,30.980392%);stroke-opacity:1;stroke-miterlimit:10;" d="M 486.0625 144.78125 C 486.0625 148.515625 483.039062 151.539062 479.308594 151.539062 C 475.574219 151.539062 472.550781 148.515625 472.550781 144.78125 C 472.550781 141.050781 475.574219 138.027344 479.308594 138.027344 C 483.039062 138.027344 486.0625 141.050781 486.0625 144.78125 "/>
<path style="fill-rule:nonzero;fill:rgb(18.431373%,30.980392%,30.980392%);fill-opacity:1;stroke-width:0.708661;stroke-linecap:round;stroke-linejoin:round;stroke:rgb(18.431373%,30.980392%,30.980392%);stroke-opacity:1;stroke-miterlimit:10;" d="M 512.273438 146.023438 C 512.273438 149.753906 509.246094 152.78125 505.515625 152.78125 C 501.785156 152.78125 498.757812 149.753906 498.757812 146.023438 C 498.757812 142.292969 501.785156 139.269531 505.515625 139.269531 C 509.246094 139.269531 512.273438 142.292969 512.273438 146.023438 "/>
<path style="fill:none;stroke-width:0.708661;stroke-linecap:round;stroke-linejoin:round;stroke:rgb(18.431373%,30.980392%,30.980392%);stroke-opacity:1;stroke-miterlimit:10;" d="M 255.222656 286.042969 C 255.222656 289.773438 252.195312 292.800781 248.464844 292.800781 C 244.734375 292.800781 241.707031 289.773438 241.707031 286.042969 C 241.707031 282.3125 244.734375 279.285156 248.464844 279.285156 C 252.195312 279.285156 255.222656 282.3125 255.222656 286.042969 "/>
<path style="fill:none;stroke-width:0.708661;stroke-linecap:round;stroke-linejoin:round;stroke:rgb(18.431373%,30.980392%,30.980392%);stroke-opacity:1;stroke-miterlimit:10;" d="M 655.269531 16.566406 C 655.269531 20.296875 652.246094 23.324219 648.515625 23.324219 C 644.78125 23.324219 641.757812 20.296875 641.757812 16.566406 C 641.757812 12.835938 644.78125 9.808594 648.515625 9.808594 C 652.246094 9.808594 655.269531 12.835938 655.269531 16.566406 "/>
<path style="fill:none;stroke-width:0.708661;stroke-linecap:round;stroke-linejoin:round;stroke:rgb(18.431373%,30.980392%,30.980392%);stroke-opacity:1;stroke-miterlimit:10;" d="M 656.773438 106.707031 C 656.773438 110.4375 653.746094 113.460938 650.015625 113.460938 C 646.285156 113.460938 643.257812 110.4375 643.257812 106.707031 C 643.257812 102.976562 646.285156 99.949219 650.015625 99.949219 C 653.746094 99.949219 656.773438 102.976562 656.773438 106.707031 "/>
<path style="fill:none;stroke-width:0.708661;stroke-linecap:round;stroke-linejoin:round;stroke:rgb(18.431373%,30.980392%,30.980392%);stroke-opacity:1;stroke-miterlimit:10;" d="M 581.621094 114.601562 C 581.621094 118.335938 578.597656 121.359375 574.867188 121.359375 C 571.136719 121.359375 568.109375 118.335938 568.109375 114.601562 C 568.109375 110.871094 571.136719 107.847656 574.867188 107.847656 C 578.597656 107.847656 581.621094 110.871094 581.621094 114.601562 "/>
<path style="fill-rule:nonzero;fill:rgb(18.431373%,30.980392%,30.980392%);fill-opacity:1;stroke-width:0.708661;stroke-linecap:round;stroke-linejoin:round;stroke:rgb(18.431373%,30.980392%,30.980392%);stroke-opacity:1;stroke-miterlimit:10;" d="M 479.4375 198.0625 C 479.4375 201.796875 476.410156 204.820312 472.679688 204.820312 C 468.949219 204.820312 465.925781 201.796875 465.925781 198.0625 C 465.925781 194.332031 468.949219 191.308594 472.679688 191.308594 C 476.410156 191.308594 479.4375 194.332031 479.4375 198.0625 "/>
<path style="fill:none;stroke-width:0.708661;stroke-linecap:round;stroke-linejoin:round;stroke:rgb(18.431373%,30.980392%,30.980392%);stroke-opacity:1;stroke-miterlimit:10;" d="M 393.773438 174.609375 C 393.773438 178.339844 390.75 181.367188 387.019531 181.367188 C 383.289062 181.367188 380.261719 178.339844 380.261719 174.609375 C 380.261719 170.878906 383.289062 167.855469 387.019531 167.855469 C 390.75 167.855469 393.773438 170.878906 393.773438 174.609375 "/>
<path style="fill-rule:nonzero;fill:rgb(18.431373%,30.980392%,30.980392%);fill-opacity:1;stroke-width:0.708661;stroke-linecap:round;stroke-linejoin:round;stroke:rgb(18.431373%,30.980392%,30.980392%);stroke-opacity:1;stroke-miterlimit:10;" d="M 480.636719 149.839844 C 480.636719 153.570312 477.609375 156.59375 473.878906 156.59375 C 470.148438 156.59375 467.121094 153.570312 467.121094 149.839844 C 467.121094 146.105469 470.148438 143.082031 473.878906 143.082031 C 477.609375 143.082031 480.636719 146.105469 480.636719 149.839844 "/>
<path style="fill:none;stroke-width:0.708661;stroke-linecap:round;stroke-linejoin:round;stroke:rgb(18.431373%,30.980392%,30.980392%);stroke-opacity:1;stroke-miterlimit:10;" d="M 511.210938 120.488281 C 511.210938 124.222656 508.183594 127.246094 504.453125 127.246094 C 500.722656 127.246094 497.699219 124.222656 497.699219 120.488281 C 497.699219 116.757812 500.722656 113.734375 504.453125 113.734375 C 508.183594 113.734375 511.210938 116.757812 511.210938 120.488281 "/>
<path style="fill-rule:nonzero;fill:rgb(18.431373%,30.980392%,30.980392%);fill-opacity:1;stroke-width:0.708661;stroke-linecap:round;stroke-linejoin:round;stroke:rgb(18.431373%,30.980392%,30.980392%);stroke-opacity:1;stroke-miterlimit:10;" d="M 555.632812 200.074219 C 555.632812 203.804688 552.605469 206.828125 548.875 206.828125 C 545.144531 206.828125 542.117188 203.804688 542.117188 200.074219 C 542.117188 196.34375 545.144531 193.316406 548.875 193.316406 C 552.605469 193.316406 555.632812 196.34375 555.632812 200.074219 "/>
<path style="fill-rule:nonzero;fill:rgb(18.431373%,30.980392%,30.980392%);fill-opacity:1;stroke-width:0.708661;stroke-linecap:round;stroke-linejoin:round;stroke:rgb(18.431373%,30.980392%,30.980392%);stroke-opacity:1;stroke-miterlimit:10;" d="M 331.941406 195.714844 C 331.941406 199.445312 328.917969 202.472656 325.1875 202.472656 C 321.453125 202.472656 318.429688 199.445312 318.429688 195.714844 C 318.429688 191.984375 321.453125 188.957031 325.1875 188.957031 C 328.917969 188.957031 331.941406 191.984375 331.941406 195.714844 "/>
<path style="fill:none;stroke-width:0.708661;stroke-linecap:round;stroke-linejoin:round;stroke:rgb(18.431373%,30.980392%,30.980392%);stroke-opacity:1;stroke-miterlimit:10;" d="M 341.550781 221.984375 C 341.550781 225.714844 338.527344 228.738281 334.796875 228.738281 C 331.0625 228.738281 328.039062 225.714844 328.039062 221.984375 C 328.039062 218.25 331.0625 215.226562 334.796875 215.226562 C 338.527344 215.226562 341.550781 218.25 341.550781 221.984375 "/>
<path style="fill:none;stroke-width:0.708661;stroke-linecap:round;stroke-linejoin:round;stroke:rgb(18.431373%,30.980392%,30.980392%);stroke-opacity:1;stroke-miterlimit:10;" d="M 360.597656 225.097656 C 360.597656 228.828125 357.570312 231.851562 353.839844 231.851562 C 350.109375 231.851562 347.082031 228.828125 347.082031 225.097656 C 347.082031 221.363281 350.109375 218.339844 353.839844 218.339844 C 357.570312 218.339844 360.597656 221.363281 360.597656 225.097656 "/>
<path style="fill-rule:nonzero;fill:rgb(18.431373%,30.980392%,30.980392%);fill-opacity:1;stroke-width:0.708661;stroke-linecap:round;stroke-linejoin:round;stroke:rgb(18.431373%,30.980392%,30.980392%);stroke-opacity:1;stroke-miterlimit:10;" d="M 242.738281 190.5 C 242.738281 194.230469 239.710938 197.253906 235.980469 197.253906 C 232.25 197.253906 229.222656 194.230469 229.222656 190.5 C 229.222656 186.769531 232.25 183.742188 235.980469 183.742188 C 239.710938 183.742188 242.738281 186.769531 242.738281 190.5 "/>
<path style="fill:none;stroke-width:0.708661;stroke-linecap:round;stroke-linejoin:round;stroke:rgb(18.431373%,30.980392%,30.980392%);stroke-opacity:1;stroke-miterlimit:10;" d="M 467.671875 108.859375 C 467.671875 112.589844 464.648438 115.613281 460.917969 115.613281 C 457.183594 115.613281 454.160156 112.589844 454.160156 108.859375 C 454.160156 105.128906 457.183594 102.101562 460.917969 102.101562 C 464.648438 102.101562 467.671875 105.128906 467.671875 108.859375 "/>
<path style="fill:none;stroke-width:0.708661;stroke-linecap:round;stroke-linejoin:round;stroke:rgb(18.431373%,30.980392%,30.980392%);stroke-opacity:1;stroke-miterlimit:10;" d="M 475.1875 178.042969 C 475.1875 181.773438 472.164062 184.796875 468.433594 184.796875 C 464.703125 184.796875 461.675781 181.773438 461.675781 178.042969 C 461.675781 174.308594 464.703125 171.285156 468.433594 171.285156 C 472.164062 171.285156 475.1875 174.308594 475.1875 178.042969 "/>
<path style="fill-rule:nonzero;fill:rgb(18.431373%,30.980392%,30.980392%);fill-opacity:1;stroke-width:0.708661;stroke-linecap:round;stroke-linejoin:round;stroke:rgb(18.431373%,30.980392%,30.980392%);stroke-opacity:1;stroke-miterlimit:10;" d="M 621.328125 164.664062 C 621.328125 168.394531 618.304688 171.421875 614.574219 171.421875 C 610.839844 171.421875 607.816406 168.394531 607.816406 164.664062 C 607.816406 160.933594 610.839844 157.910156 614.574219 157.910156 C 618.304688 157.910156 621.328125 160.933594 621.328125 164.664062 "/>
<path style="fill:none;stroke-width:0.708661;stroke-linecap:round;stroke-linejoin:round;stroke:rgb(18.431373%,30.980392%,30.980392%);stroke-opacity:1;stroke-miterlimit:10;" d="M 313.070312 194.75 C 313.070312 198.480469 310.046875 201.507812 306.316406 201.507812 C 302.582031 201.507812 299.558594 198.480469 299.558594 194.75 C 299.558594 191.019531 302.582031 187.996094 306.316406 187.996094 C 310.046875 187.996094 313.070312 191.019531 313.070312 194.75 "/>
<path style="fill:none;stroke-width:0.708661;stroke-linecap:round;stroke-linejoin:round;stroke:rgb(18.431373%,30.980392%,30.980392%);stroke-opacity:1;stroke-miterlimit:10;" d="M 239.515625 266.242188 C 239.515625 269.972656 236.492188 272.996094 232.761719 272.996094 C 229.027344 272.996094 226.003906 269.972656 226.003906 266.242188 C 226.003906 262.511719 229.027344 259.484375 232.761719 259.484375 C 236.492188 259.484375 239.515625 262.511719 239.515625 266.242188 "/>
<path style="fill:none;stroke-width:0.708661;stroke-linecap:round;stroke-linejoin:round;stroke:rgb(18.431373%,30.980392%,30.980392%);stroke-opacity:1;stroke-miterlimit:10;" d="M 548.179688 173.421875 C 548.179688 177.15625 545.15625 180.179688 541.425781 180.179688 C 537.695312 180.179688 534.667969 177.15625 534.667969 173.421875 C 534.667969 169.691406 537.695312 166.667969 541.425781 166.667969 C 545.15625 166.667969 548.179688 169.691406 548.179688 173.421875 "/>
<path style="fill:none;stroke-width:0.708661;stroke-linecap:round;stroke-linejoin:round;stroke:rgb(18.431373%,30.980392%,30.980392%);stroke-opacity:1;stroke-miterlimit:10;" d="M 473.703125 228.765625 C 473.703125 232.496094 470.679688 235.523438 466.945312 235.523438 C 463.214844 235.523438 460.191406 232.496094 460.191406 228.765625 C 460.191406 225.035156 463.214844 222.011719 466.945312 222.011719 C 470.679688 222.011719 473.703125 225.035156 473.703125 228.765625 "/>
<path style="fill:none;stroke-width:0.708661;stroke-linecap:round;stroke-linejoin:round;stroke:rgb(18.431373%,30.980392%,30.980392%);stroke-opacity:1;stroke-miterlimit:10;" d="M 303.601562 250.144531 C 303.601562 253.875 300.574219 256.898438 296.84375 256.898438 C 293.113281 256.898438 290.089844 253.875 290.089844 250.144531 C 290.089844 246.414062 293.113281 243.386719 296.84375 243.386719 C 300.574219 243.386719 303.601562 246.414062 303.601562 250.144531 "/>
<path style="fill:none;stroke-width:0.708661;stroke-linecap:round;stroke-linejoin:round;stroke:rgb(18.431373%,30.980392%,30.980392%);stroke-opacity:1;stroke-miterlimit:10;" d="M 457.496094 198.890625 C 457.496094 202.621094 454.472656 205.644531 450.742188 205.644531 C 447.007812 205.644531 443.984375 202.621094 443.984375 198.890625 C 443.984375 195.15625 447.007812 192.132812 450.742188 192.132812 C 454.472656 192.132812 457.496094 195.15625 457.496094 198.890625 "/>
<path style="fill-rule:nonzero;fill:rgb(18.431373%,30.980392%,30.980392%);fill-opacity:1;stroke-width:0.708661;stroke-linecap:round;stroke-linejoin:round;stroke:rgb(18.431373%,30.980392%,30.980392%);stroke-opacity:1;stroke-miterlimit:10;" d="M 534.953125 89.59375 C 534.953125 93.324219 531.925781 96.347656 528.195312 96.347656 C 524.464844 96.347656 521.4375 93.324219 521.4375 89.59375 C 521.4375 85.859375 524.464844 82.835938 528.195312 82.835938 C 531.925781 82.835938 534.953125 85.859375 534.953125 89.59375 "/>
<path style="fill:none;stroke-width:0.708661;stroke-linecap:round;stroke-linejoin:round;stroke:rgb(18.431373%,30.980392%,30.980392%);stroke-opacity:1;stroke-miterlimit:10;" d="M 312.917969 133.867188 C 312.917969 137.597656 309.890625 140.625 306.160156 140.625 C 302.429688 140.625 299.402344 137.597656 299.402344 133.867188 C 299.402344 130.136719 302.429688 127.109375 306.160156 127.109375 C 309.890625 127.109375 312.917969 130.136719 312.917969 133.867188 "/>
<path style="fill-rule:nonzero;fill:rgb(18.431373%,30.980392%,30.980392%);fill-opacity:1;stroke-width:0.708661;stroke-linecap:round;stroke-linejoin:round;stroke:rgb(18.431373%,30.980392%,30.980392%);stroke-opacity:1;stroke-miterlimit:10;" d="M 596.15625 136.390625 C 596.15625 140.121094 593.132812 143.144531 589.402344 143.144531 C 585.667969 143.144531 582.644531 140.121094 582.644531 136.390625 C 582.644531 132.65625 585.667969 129.632812 589.402344 129.632812 C 593.132812 129.632812 596.15625 132.65625 596.15625 136.390625 "/>
<path style="fill:none;stroke-width:0.708661;stroke-linecap:round;stroke-linejoin:round;stroke:rgb(18.431373%,30.980392%,30.980392%);stroke-opacity:1;stroke-miterlimit:10;" d="M 434.898438 199.496094 C 434.898438 203.226562 431.875 206.25 428.140625 206.25 C 424.410156 206.25 421.386719 203.226562 421.386719 199.496094 C 421.386719 195.761719 424.410156 192.738281 428.140625 192.738281 C 431.875 192.738281 434.898438 195.761719 434.898438 199.496094 "/>
<path style="fill-rule:nonzero;fill:rgb(18.431373%,30.980392%,30.980392%);fill-opacity:1;stroke-width:0.708661;stroke-linecap:round;stroke-linejoin:round;stroke:rgb(18.431373%,30.980392%,30.980392%);stroke-opacity:1;stroke-miterlimit:10;" d="M 46.964844 318.105469 C 46.964844 321.839844 43.941406 324.863281 40.207031 324.863281 C 36.476562 324.863281 33.453125 321.839844 33.453125 318.105469 C 33.453125 314.375 36.476562 311.351562 40.207031 311.351562 C 43.941406 311.351562 46.964844 314.375 46.964844 318.105469 "/>
<path style="fill:none;stroke-width:0.708661;stroke-linecap:round;stroke-linejoin:round;stroke:rgb(18.431373%,30.980392%,30.980392%);stroke-opacity:1;stroke-miterlimit:10;" d="M 80.335938 307.308594 C 80.335938 311.042969 77.3125 314.066406 73.582031 314.066406 C 69.847656 314.066406 66.824219 311.042969 66.824219 307.308594 C 66.824219 303.578125 69.847656 300.554688 73.582031 300.554688 C 77.3125 300.554688 80.335938 303.578125 80.335938 307.308594 "/>
<path style="fill-rule:nonzero;fill:rgb(18.431373%,30.980392%,30.980392%);fill-opacity:1;stroke-width:0.708661;stroke-linecap:round;stroke-linejoin:round;stroke:rgb(18.431373%,30.980392%,30.980392%);stroke-opacity:1;stroke-miterlimit:10;" d="M 444.851562 146.792969 C 444.851562 150.527344 441.828125 153.550781 438.097656 153.550781 C 434.363281 153.550781 431.339844 150.527344 431.339844 146.792969 C 431.339844 143.0625 434.363281 140.039062 438.097656 140.039062 C 441.828125 140.039062 444.851562 143.0625 444.851562 146.792969 "/>
<path style="fill:none;stroke-width:0.708661;stroke-linecap:round;stroke-linejoin:round;stroke:rgb(18.431373%,30.980392%,30.980392%);stroke-opacity:1;stroke-miterlimit:10;" d="M 298.183594 163.089844 C 298.183594 166.820312 295.160156 169.84375 291.429688 169.84375 C 287.699219 169.84375 284.671875 166.820312 284.671875 163.089844 C 284.671875 159.355469 287.699219 156.332031 291.429688 156.332031 C 295.160156 156.332031 298.183594 159.355469 298.183594 163.089844 "/>
<path style="fill:none;stroke-width:0.708661;stroke-linecap:round;stroke-linejoin:round;stroke:rgb(18.431373%,30.980392%,30.980392%);stroke-opacity:1;stroke-miterlimit:10;" d="M 340.242188 228.203125 C 340.242188 231.933594 337.21875 234.957031 333.488281 234.957031 C 329.757812 234.957031 326.730469 231.933594 326.730469 228.203125 C 326.730469 224.46875 329.757812 221.445312 333.488281 221.445312 C 337.21875 221.445312 340.242188 224.46875 340.242188 228.203125 "/>
<path style="fill:none;stroke-width:0.708661;stroke-linecap:round;stroke-linejoin:round;stroke:rgb(18.431373%,30.980392%,30.980392%);stroke-opacity:1;stroke-miterlimit:10;" d="M 415.660156 125.058594 C 415.660156 128.789062 412.636719 131.816406 408.90625 131.816406 C 405.175781 131.816406 402.148438 128.789062 402.148438 125.058594 C 402.148438 121.328125 405.175781 118.304688 408.90625 118.304688 C 412.636719 118.304688 415.660156 121.328125 415.660156 125.058594 "/>
<path style="fill:none;stroke-width:0.708661;stroke-linecap:round;stroke-linejoin:round;stroke:rgb(18.431373%,30.980392%,30.980392%);stroke-opacity:1;stroke-miterlimit:10;" d="M 379.863281 195.875 C 379.863281 199.605469 376.839844 202.632812 373.109375 202.632812 C 369.378906 202.632812 366.351562 199.605469 366.351562 195.875 C 366.351562 192.144531 369.378906 189.121094 373.109375 189.121094 C 376.839844 189.121094 379.863281 192.144531 379.863281 195.875 "/>
<path style="fill-rule:nonzero;fill:rgb(18.431373%,30.980392%,30.980392%);fill-opacity:1;stroke-width:0.708661;stroke-linecap:round;stroke-linejoin:round;stroke:rgb(18.431373%,30.980392%,30.980392%);stroke-opacity:1;stroke-miterlimit:10;" d="M 287.8125 284.035156 C 287.8125 287.765625 284.785156 290.789062 281.054688 290.789062 C 277.324219 290.789062 274.300781 287.765625 274.300781 284.035156 C 274.300781 280.300781 277.324219 277.277344 281.054688 277.277344 C 284.785156 277.277344 287.8125 280.300781 287.8125 284.035156 "/>
<path style="fill:none;stroke-width:0.708661;stroke-linecap:round;stroke-linejoin:round;stroke:rgb(18.431373%,30.980392%,30.980392%);stroke-opacity:1;stroke-miterlimit:10;" d="M 247.636719 233.816406 C 247.636719 237.550781 244.609375 240.574219 240.878906 240.574219 C 237.148438 240.574219 234.125 237.550781 234.125 233.816406 C 234.125 230.085938 237.148438 227.0625 240.878906 227.0625 C 244.609375 227.0625 247.636719 230.085938 247.636719 233.816406 "/>
<path style="fill:none;stroke-width:0.708661;stroke-linecap:round;stroke-linejoin:round;stroke:rgb(18.431373%,30.980392%,30.980392%);stroke-opacity:1;stroke-miterlimit:10;" d="M 350.023438 189.367188 C 350.023438 193.101562 347 196.125 343.269531 196.125 C 339.535156 196.125 336.511719 193.101562 336.511719 189.367188 C 336.511719 185.636719 339.535156 182.613281 343.269531 182.613281 C 347 182.613281 350.023438 185.636719 350.023438 189.367188 "/>
<path style="fill-rule:nonzero;fill:rgb(18.431373%,30.980392%,30.980392%);fill-opacity:1;stroke-width:0.708661;stroke-linecap:round;stroke-linejoin:round;stroke:rgb(18.431373%,30.980392%,30.980392%);stroke-opacity:1;stroke-miterlimit:10;" d="M 649.21875 169.222656 C 649.21875 172.953125 646.195312 175.976562 642.464844 175.976562 C 638.730469 175.976562 635.707031 172.953125 635.707031 169.222656 C 635.707031 165.488281 638.730469 162.464844 642.464844 162.464844 C 646.195312 162.464844 649.21875 165.488281 649.21875 169.222656 "/>
<path style="fill:none;stroke-width:0.708661;stroke-linecap:round;stroke-linejoin:round;stroke:rgb(18.431373%,30.980392%,30.980392%);stroke-opacity:1;stroke-miterlimit:10;" d="M 588.902344 177.140625 C 588.902344 180.871094 585.875 183.898438 582.144531 183.898438 C 578.414062 183.898438 575.386719 180.871094 575.386719 177.140625 C 575.386719 173.410156 578.414062 170.382812 582.144531 170.382812 C 585.875 170.382812 588.902344 173.410156 588.902344 177.140625 "/>
<path style="fill:none;stroke-width:0.708661;stroke-linecap:round;stroke-linejoin:round;stroke:rgb(18.431373%,30.980392%,30.980392%);stroke-opacity:1;stroke-miterlimit:10;" d="M 388.355469 133.769531 C 388.355469 137.503906 385.332031 140.527344 381.601562 140.527344 C 377.867188 140.527344 374.84375 137.503906 374.84375 133.769531 C 374.84375 130.039062 377.867188 127.015625 381.601562 127.015625 C 385.332031 127.015625 388.355469 130.039062 388.355469 133.769531 "/>
<path style="fill-rule:nonzero;fill:rgb(18.431373%,30.980392%,30.980392%);fill-opacity:1;stroke-width:0.708661;stroke-linecap:round;stroke-linejoin:round;stroke:rgb(18.431373%,30.980392%,30.980392%);stroke-opacity:1;stroke-miterlimit:10;" d="M 348.734375 139.890625 C 348.734375 143.625 345.710938 146.648438 341.980469 146.648438 C 338.246094 146.648438 335.222656 143.625 335.222656 139.890625 C 335.222656 136.160156 338.246094 133.136719 341.980469 133.136719 C 345.710938 133.136719 348.734375 136.160156 348.734375 139.890625 "/>
<path style="fill:none;stroke-width:0.708661;stroke-linecap:round;stroke-linejoin:round;stroke:rgb(18.431373%,30.980392%,30.980392%);stroke-opacity:1;stroke-miterlimit:10;" d="M 119.78125 162.609375 C 119.78125 166.339844 116.757812 169.363281 113.027344 169.363281 C 109.292969 169.363281 106.269531 166.339844 106.269531 162.609375 C 106.269531 158.875 109.292969 155.851562 113.027344 155.851562 C 116.757812 155.851562 119.78125 158.875 119.78125 162.609375 "/>
<path style="fill:none;stroke-width:0.708661;stroke-linecap:round;stroke-linejoin:round;stroke:rgb(18.431373%,30.980392%,30.980392%);stroke-opacity:1;stroke-miterlimit:10;" d="M 361 254.148438 C 361 257.878906 357.976562 260.90625 354.246094 260.90625 C 350.511719 260.90625 347.488281 257.878906 347.488281 254.148438 C 347.488281 250.417969 350.511719 247.394531 354.246094 247.394531 C 357.976562 247.394531 361 250.417969 361 254.148438 "/>
<path style="fill:none;stroke-width:0.708661;stroke-linecap:round;stroke-linejoin:round;stroke:rgb(18.431373%,30.980392%,30.980392%);stroke-opacity:1;stroke-miterlimit:10;" d="M 474.558594 169.964844 C 474.558594 173.695312 471.53125 176.71875 467.800781 176.71875 C 464.070312 176.71875 461.046875 173.695312 461.046875 169.964844 C 461.046875 166.230469 464.070312 163.207031 467.800781 163.207031 C 471.53125 163.207031 474.558594 166.230469 474.558594 169.964844 "/>
<path style="fill:none;stroke-width:0.708661;stroke-linecap:round;stroke-linejoin:round;stroke:rgb(18.431373%,30.980392%,30.980392%);stroke-opacity:1;stroke-miterlimit:10;" d="M 203.921875 194.320312 C 203.921875 198.050781 200.898438 201.078125 197.167969 201.078125 C 193.4375 201.078125 190.410156 198.050781 190.410156 194.320312 C 190.410156 190.589844 193.4375 187.566406 197.167969 187.566406 C 200.898438 187.566406 203.921875 190.589844 203.921875 194.320312 "/>
<path style="fill-rule:nonzero;fill:rgb(18.431373%,30.980392%,30.980392%);fill-opacity:1;stroke-width:0.708661;stroke-linecap:round;stroke-linejoin:round;stroke:rgb(18.431373%,30.980392%,30.980392%);stroke-opacity:1;stroke-miterlimit:10;" d="M 499.769531 121.425781 C 499.769531 125.15625 496.742188 128.183594 493.011719 128.183594 C 489.28125 128.183594 486.257812 125.15625 486.257812 121.425781 C 486.257812 117.695312 489.28125 114.667969 493.011719 114.667969 C 496.742188 114.667969 499.769531 117.695312 499.769531 121.425781 "/>
<path style="fill:none;stroke-width:0.708661;stroke-linecap:round;stroke-linejoin:round;stroke:rgb(18.431373%,30.980392%,30.980392%);stroke-opacity:1;stroke-miterlimit:10;" d="M 508.410156 167.988281 C 508.410156 171.722656 505.386719 174.746094 501.652344 174.746094 C 497.921875 174.746094 494.898438 171.722656 494.898438 167.988281 C 494.898438 164.257812 497.921875 161.234375 501.652344 161.234375 C 505.386719 161.234375 508.410156 164.257812 508.410156 167.988281 "/>
<path style="fill:none;stroke-width:0.708661;stroke-linecap:round;stroke-linejoin:round;stroke:rgb(18.431373%,30.980392%,30.980392%);stroke-opacity:1;stroke-miterlimit:10;" d="M 212.777344 153.246094 C 212.777344 156.976562 209.753906 160.003906 206.019531 160.003906 C 202.289062 160.003906 199.265625 156.976562 199.265625 153.246094 C 199.265625 149.515625 202.289062 146.492188 206.019531 146.492188 C 209.753906 146.492188 212.777344 149.515625 212.777344 153.246094 "/>
<path style="fill:none;stroke-width:0.708661;stroke-linecap:round;stroke-linejoin:round;stroke:rgb(18.431373%,30.980392%,30.980392%);stroke-opacity:1;stroke-miterlimit:10;" d="M 540.757812 23.46875 C 540.757812 27.199219 537.734375 30.226562 534.003906 30.226562 C 530.273438 30.226562 527.246094 27.199219 527.246094 23.46875 C 527.246094 19.738281 530.273438 16.710938 534.003906 16.710938 C 537.734375 16.710938 540.757812 19.738281 540.757812 23.46875 "/>
<path style="fill:none;stroke-width:0.708661;stroke-linecap:round;stroke-linejoin:round;stroke:rgb(18.431373%,30.980392%,30.980392%);stroke-opacity:1;stroke-miterlimit:10;" d="M 330.914062 207.792969 C 330.914062 211.523438 327.890625 214.550781 324.160156 214.550781 C 320.429688 214.550781 317.402344 211.523438 317.402344 207.792969 C 317.402344 204.0625 320.429688 201.035156 324.160156 201.035156 C 327.890625 201.035156 330.914062 204.0625 330.914062 207.792969 "/>
<path style="fill:none;stroke-width:0.708661;stroke-linecap:round;stroke-linejoin:round;stroke:rgb(18.431373%,30.980392%,30.980392%);stroke-opacity:1;stroke-miterlimit:10;" d="M 307.980469 268.957031 C 307.980469 272.6875 304.957031 275.714844 301.222656 275.714844 C 297.492188 275.714844 294.46875 272.6875 294.46875 268.957031 C 294.46875 265.226562 297.492188 262.203125 301.222656 262.203125 C 304.957031 262.203125 307.980469 265.226562 307.980469 268.957031 "/>
<path style="fill:none;stroke-width:0.708661;stroke-linecap:round;stroke-linejoin:round;stroke:rgb(18.431373%,30.980392%,30.980392%);stroke-opacity:1;stroke-miterlimit:10;" d="M 509.265625 159.019531 C 509.265625 162.753906 506.242188 165.777344 502.511719 165.777344 C 498.777344 165.777344 495.753906 162.753906 495.753906 159.019531 C 495.753906 155.289062 498.777344 152.265625 502.511719 152.265625 C 506.242188 152.265625 509.265625 155.289062 509.265625 159.019531 "/>
<path style="fill-rule:nonzero;fill:rgb(18.431373%,30.980392%,30.980392%);fill-opacity:1;stroke-width:0.708661;stroke-linecap:round;stroke-linejoin:round;stroke:rgb(18.431373%,30.980392%,30.980392%);stroke-opacity:1;stroke-miterlimit:10;" d="M 434.371094 263.023438 C 434.371094 266.753906 431.347656 269.777344 427.613281 269.777344 C 423.882812 269.777344 420.859375 266.753906 420.859375 263.023438 C 420.859375 259.292969 423.882812 256.265625 427.613281 256.265625 C 431.347656 256.265625 434.371094 259.292969 434.371094 263.023438 "/>
<path style="fill:none;stroke-width:0.708661;stroke-linecap:round;stroke-linejoin:round;stroke:rgb(18.431373%,30.980392%,30.980392%);stroke-opacity:1;stroke-miterlimit:10;" d="M 321.832031 167.71875 C 321.832031 171.449219 318.808594 174.476562 315.078125 174.476562 C 311.34375 174.476562 308.320312 171.449219 308.320312 167.71875 C 308.320312 163.988281 311.34375 160.964844 315.078125 160.964844 C 318.808594 160.964844 321.832031 163.988281 321.832031 167.71875 "/>
<path style="fill:none;stroke-width:0.708661;stroke-linecap:round;stroke-linejoin:round;stroke:rgb(18.431373%,30.980392%,30.980392%);stroke-opacity:1;stroke-miterlimit:10;" d="M 200.277344 290.292969 C 200.277344 294.023438 197.25 297.050781 193.519531 297.050781 C 189.789062 297.050781 186.761719 294.023438 186.761719 290.292969 C 186.761719 286.5625 189.789062 283.535156 193.519531 283.535156 C 197.25 283.535156 200.277344 286.5625 200.277344 290.292969 "/>
<path style="fill:none;stroke-width:0.708661;stroke-linecap:round;stroke-linejoin:round;stroke:rgb(18.431373%,30.980392%,30.980392%);stroke-opacity:1;stroke-miterlimit:10;" d="M 517.582031 112.929688 C 517.582031 116.660156 514.558594 119.683594 510.824219 119.683594 C 507.09375 119.683594 504.070312 116.660156 504.070312 112.929688 C 504.070312 109.195312 507.09375 106.171875 510.824219 106.171875 C 514.558594 106.171875 517.582031 109.195312 517.582031 112.929688 "/>
<path style="fill:none;stroke-width:0.708661;stroke-linecap:round;stroke-linejoin:round;stroke:rgb(18.431373%,30.980392%,30.980392%);stroke-opacity:1;stroke-miterlimit:10;" d="M 213.75 249.777344 C 213.75 253.507812 210.726562 256.53125 206.996094 256.53125 C 203.261719 256.53125 200.238281 253.507812 200.238281 249.777344 C 200.238281 246.046875 203.261719 243.019531 206.996094 243.019531 C 210.726562 243.019531 213.75 246.046875 213.75 249.777344 "/>
<path style="fill:none;stroke-width:0.708661;stroke-linecap:round;stroke-linejoin:round;stroke:rgb(18.431373%,30.980392%,30.980392%);stroke-opacity:1;stroke-miterlimit:10;" d="M 94.253906 263.875 C 94.253906 267.609375 91.230469 270.632812 87.496094 270.632812 C 83.765625 270.632812 80.742188 267.609375 80.742188 263.875 C 80.742188 260.144531 83.765625 257.121094 87.496094 257.121094 C 91.230469 257.121094 94.253906 260.144531 94.253906 263.875 "/>
<path style="fill:none;stroke-width:0.708661;stroke-linecap:round;stroke-linejoin:round;stroke:rgb(18.431373%,30.980392%,30.980392%);stroke-opacity:1;stroke-miterlimit:10;" d="M 523.066406 203.441406 C 523.066406 207.171875 520.039062 210.195312 516.308594 210.195312 C 512.578125 210.195312 509.550781 207.171875 509.550781 203.441406 C 509.550781 199.707031 512.578125 196.683594 516.308594 196.683594 C 520.039062 196.683594 523.066406 199.707031 523.066406 203.441406 "/>
<path style="fill-rule:nonzero;fill:rgb(18.431373%,30.980392%,30.980392%);fill-opacity:1;stroke-width:0.708661;stroke-linecap:round;stroke-linejoin:round;stroke:rgb(18.431373%,30.980392%,30.980392%);stroke-opacity:1;stroke-miterlimit:10;" d="M 507.84375 141.539062 C 507.84375 145.273438 504.820312 148.296875 501.089844 148.296875 C 497.355469 148.296875 494.332031 145.273438 494.332031 141.539062 C 494.332031 137.808594 497.355469 134.785156 501.089844 134.785156 C 504.820312 134.785156 507.84375 137.808594 507.84375 141.539062 "/>
<path style="fill:none;stroke-width:0.708661;stroke-linecap:round;stroke-linejoin:round;stroke:rgb(18.431373%,30.980392%,30.980392%);stroke-opacity:1;stroke-miterlimit:10;" d="M 463.558594 185 C 463.558594 188.730469 460.535156 191.753906 456.804688 191.753906 C 453.074219 191.753906 450.046875 188.730469 450.046875 185 C 450.046875 181.269531 453.074219 178.242188 456.804688 178.242188 C 460.535156 178.242188 463.558594 181.269531 463.558594 185 "/>
<path style="fill:none;stroke-width:0.708661;stroke-linecap:round;stroke-linejoin:round;stroke:rgb(18.431373%,30.980392%,30.980392%);stroke-opacity:1;stroke-miterlimit:10;" d="M 29.988281 288.679688 C 29.988281 292.410156 26.964844 295.433594 23.234375 295.433594 C 19.503906 295.433594 16.476562 292.410156 16.476562 288.679688 C 16.476562 284.945312 19.503906 281.921875 23.234375 281.921875 C 26.964844 281.921875 29.988281 284.945312 29.988281 288.679688 "/>
<path style="fill:none;stroke-width:0.708661;stroke-linecap:round;stroke-linejoin:round;stroke:rgb(18.431373%,30.980392%,30.980392%);stroke-opacity:1;stroke-miterlimit:10;" d="M 337.167969 205.707031 C 337.167969 209.4375 334.140625 212.464844 330.410156 212.464844 C 326.679688 212.464844 323.65625 209.4375 323.65625 205.707031 C 323.65625 201.976562 326.679688 198.949219 330.410156 198.949219 C 334.140625 198.949219 337.167969 201.976562 337.167969 205.707031 "/>
<path style="fill-rule:nonzero;fill:rgb(18.431373%,30.980392%,30.980392%);fill-opacity:1;stroke-width:0.708661;stroke-linecap:round;stroke-linejoin:round;stroke:rgb(18.431373%,30.980392%,30.980392%);stroke-opacity:1;stroke-miterlimit:10;" d="M 390.808594 134.757812 C 390.808594 138.488281 387.785156 141.511719 384.050781 141.511719 C 380.320312 141.511719 377.296875 138.488281 377.296875 134.757812 C 377.296875 131.023438 380.320312 128 384.050781 128 C 387.785156 128 390.808594 131.023438 390.808594 134.757812 "/>
<path style="fill:none;stroke-width:0.708661;stroke-linecap:round;stroke-linejoin:round;stroke:rgb(18.431373%,30.980392%,30.980392%);stroke-opacity:1;stroke-miterlimit:10;" d="M 556.898438 204.886719 C 556.898438 208.621094 553.875 211.644531 550.144531 211.644531 C 546.410156 211.644531 543.386719 208.621094 543.386719 204.886719 C 543.386719 201.15625 546.410156 198.132812 550.144531 198.132812 C 553.875 198.132812 556.898438 201.15625 556.898438 204.886719 "/>
<path style="fill:none;stroke-width:0.708661;stroke-linecap:round;stroke-linejoin:round;stroke:rgb(18.431373%,30.980392%,30.980392%);stroke-opacity:1;stroke-miterlimit:10;" d="M 423.644531 183.847656 C 423.644531 187.578125 420.621094 190.605469 416.890625 190.605469 C 413.15625 190.605469 410.132812 187.578125 410.132812 183.847656 C 410.132812 180.117188 413.15625 177.09375 416.890625 177.09375 C 420.621094 177.09375 423.644531 180.117188 423.644531 183.847656 "/>
<path style="fill-rule:nonzero;fill:rgb(18.431373%,30.980392%,30.980392%);fill-opacity:1;stroke-width:0.708661;stroke-linecap:round;stroke-linejoin:round;stroke:rgb(18.431373%,30.980392%,30.980392%);stroke-opacity:1;stroke-miterlimit:10;" d="M 187.742188 244.492188 C 187.742188 248.222656 184.71875 251.246094 180.988281 251.246094 C 177.257812 251.246094 174.230469 248.222656 174.230469 244.492188 C 174.230469 240.761719 177.257812 237.734375 180.988281 237.734375 C 184.71875 237.734375 187.742188 240.761719 187.742188 244.492188 "/>
<path style="fill:none;stroke-width:4.267913;stroke-linecap:butt;stroke-linejoin:round;stroke:rgb(0%,0%,0%);stroke-opacity:0.298039;stroke-dasharray:17.071654,17.071654;stroke-miterlimit:10;" d="M -779.320312 507.179688 L 1523.660156 -123.382812 "/>
<path style="fill:none;stroke-width:4.267913;stroke-linecap:butt;stroke-linejoin:round;stroke:rgb(0%,0%,0%);stroke-opacity:0.298039;stroke-dasharray:17.071654,17.071654;stroke-miterlimit:10;" d="M -779.320312 472.390625 L 1523.660156 -104.367188 "/>
<path style="fill:none;stroke-width:4.267913;stroke-linecap:butt;stroke-linejoin:round;stroke:rgb(0%,0%,0%);stroke-opacity:1;stroke-dasharray:17.071654,17.071654;stroke-miterlimit:10;" d="M -779.320312 420.921875 L 1523.660156 -41.546875 "/>
</g>
</svg>
