<?xml version="1.0" encoding="UTF-8"?>
<svg xmlns="http://www.w3.org/2000/svg" xmlns:xlink="http://www.w3.org/1999/xlink" width="756pt" height="504pt" viewBox="0 0 756 504" version="1.1">
<g id="surface9">
<rect x="0" y="0" width="756" height="504" style="fill:rgb(100%,100%,100%);fill-opacity:1;stroke:none;"/>
<path style="fill:none;stroke-width:0.708661;stroke-linecap:round;stroke-linejoin:round;stroke:rgb(18.431373%,30.980392%,30.980392%);stroke-opacity:1;stroke-miterlimit:10;" d="M 34.257812 485.347656 C 34.257812 491.4375 29.320312 496.371094 23.234375 496.371094 C 17.144531 496.371094 12.210938 491.4375 12.210938 485.347656 C 12.210938 479.261719 17.144531 474.324219 23.234375 474.324219 C 29.320312 474.324219 34.257812 479.261719 34.257812 485.347656 "/>
<path style="fill-rule:nonzero;fill:rgb(18.431373%,30.980392%,30.980392%);fill-opacity:1;stroke-width:0.708661;stroke-linecap:round;stroke-linejoin:round;stroke:rgb(18.431373%,30.980392%,30.980392%);stroke-opacity:1;stroke-miterlimit:10;" d="M 111.800781 485.347656 C 111.800781 491.4375 106.863281 496.371094 100.773438 496.371094 C 94.6875 496.371094 89.75 491.4375 89.75 485.347656 C 89.75 479.261719 94.6875 474.324219 100.773438 474.324219 C 106.863281 474.324219 111.800781 479.261719 111.800781 485.347656 "/>
<path style="fill:none;stroke-width:0.708661;stroke-linecap:round;stroke-linejoin:round;stroke:rgb(18.431373%,30.980392%,30.980392%);stroke-opacity:1;stroke-miterlimit:10;" d="M 189.339844 485.347656 C 189.339844 491.4375 184.40625 496.371094 178.316406 496.371094 C 172.226562 496.371094 167.292969 491.4375 167.292969 485.347656 C 167.292969 479.261719 172.226562 474.324219 178.316406 474.324219 C 184.40625 474.324219 189.339844 479.261719 189.339844 485.347656 "/>
<path style="fill:none;stroke-width:0.708661;stroke-linecap:round;stroke-linejoin:round;stroke:rgb(18.431373%,30.980392%,30.980392%);stroke-opacity:1;stroke-miterlimit:10;" d="M 266.882812 485.347656 C 266.882812 491.4375 261.945312 496.371094 255.859375 496.371094 C 249.769531 496.371094 244.832031 491.4375 244.832031 485.347656 C 244.832031 479.261719 249.769531 474.324219 255.859375 474.324219 C 261.945312 474.324219 266.882812 479.261719 266.882812 485.347656 "/>
<path style="fill:none;stroke-width:0.708661;stroke-linecap:round;stroke-linejoin:round;stroke:rgb(18.431373%,30.980392%,30.980392%);stroke-opacity:1;stroke-miterlimit:10;" d="M 344.421875 485.347656 C 344.421875 491.4375 339.488281 496.371094 333.398438 496.371094 C 327.3125 496.371094 322.375 491.4375 322.375 485.347656 C 322.375 479.261719 327.3125 474.324219 333.398438 474.324219 C 339.488281 474.324219 344.421875 479.261719 344.421875 485.347656 "/>
<path style="fill:none;stroke-width:0.708661;stroke-linecap:round;stroke-linejoin:round;stroke:rgb(18.431373%,30.980392%,30.980392%);stroke-opacity:1;stroke-miterlimit:10;" d="M 421.964844 485.347656 C 421.964844 491.4375 417.027344 496.371094 410.941406 496.371094 C 404.851562 496.371094 399.917969 491.4375 399.917969 485.347656 C 399.917969 479.261719 404.851562 474.324219 410.941406 474.324219 C 417.027344 474.324219 421.964844 479.261719 421.964844 485.347656 "/>
<path style="fill:none;stroke-width:0.708661;stroke-linecap:round;stroke-linejoin:round;stroke:rgb(18.431373%,30.980392%,30.980392%);stroke-opacity:1;stroke-miterlimit:10;" d="M 499.507812 485.347656 C 499.507812 491.4375 494.570312 496.371094 488.480469 496.371094 C 482.394531 496.371094 477.457031 491.4375 477.457031 485.347656 C 477.457031 479.261719 482.394531 474.324219 488.480469 474.324219 C 494.570312 474.324219 499.507812 479.261719 499.507812 485.347656 "/>
<path style="fill-rule:nonzero;fill:rgb(18.431373%,30.980392%,30.980392%);fill-opacity:1;stroke-width:0.708661;stroke-linecap:round;stroke-linejoin:round;stroke:rgb(18.431373%,30.980392%,30.980392%);stroke-opacity:1;stroke-miterlimit:10;" d="M 577.046875 485.347656 C 577.046875 491.4375 572.113281 496.371094 566.023438 496.371094 C 559.933594 496.371094 555 491.4375 555 485.347656 C 555 479.261719 559.933594 474.324219 566.023438 474.324219 C 572.113281 474.324219 577.046875 479.261719 577.046875 485.347656 "/>
<path style="fill:none;stroke-width:0.708661;stroke-linecap:round;stroke-linejoin:round;stroke:rgb(18.431373%,30.980392%,30.980392%);stroke-opacity:1;stroke-miterlimit:10;" d="M 654.589844 485.347656 C 654.589844 491.4375 649.652344 496.371094 643.566406 496.371094 C 637.476562 496.371094 632.539062 491.4375 632.539062 485.347656 C 632.539062 479.261719 637.476562 474.324219 643.566406 474.324219 C 649.652344 474.324219 654.589844 479.261719 654.589844 485.347656 "/>
<path style="fill:none;stroke-width:0.708661;stroke-linecap:round;stroke-linejoin:round;stroke:rgb(18.431373%,30.980392%,30.980392%);stroke-opacity:1;stroke-miterlimit:10;" d="M 732.128906 485.347656 C 732.128906 491.4375 727.195312 496.371094 721.105469 496.371094 C 715.019531 496.371094 710.082031 491.4375 710.082031 485.347656 C 710.082031 479.261719 715.019531 474.324219 721.105469 474.324219 C 727.195312 474.324219 732.128906 479.261719 732.128906 485.347656 "/>
<path style="fill:none;stroke-width:0.708661;stroke-linecap:round;stroke-linejoin:round;stroke:rgb(18.431373%,30.980392%,30.980392%);stroke-opacity:1;stroke-miterlimit:10;" d="M 34.257812 433.988281 C 34.257812 440.078125 29.320312 445.011719 23.234375 445.011719 C 17.144531 445.011719 12.210938 440.078125 12.210938 433.988281 C 12.210938 427.898438 17.144531 422.964844 23.234375 422.964844 C 29.320312 422.964844 34.257812 427.898438 34.257812 433.988281 "/>
<path style="fill:none;stroke-width:0.708661;stroke-linecap:round;stroke-linejoin:round;stroke:rgb(18.431373%,30.980392%,30.980392%);stroke-opacity:1;stroke-miterlimit:10;" d="M 111.800781 433.988281 C 111.800781 440.078125 106.863281 445.011719 100.773438 445.011719 C 94.6875 445.011719 89.75 440.078125 89.75 433.988281 C 89.75 427.898438 94.6875 422.964844 100.773438 422.964844 C 106.863281 422.964844 111.800781 427.898438 111.800781 433.988281 "/>
<path style="fill:none;stroke-width:0.708661;stroke-linecap:round;stroke-linejoin:round;stroke:rgb(18.431373%,30.980392%,30.980392%);stroke-opacity:1;stroke-miterlimit:10;" d="M 189.339844 433.988281 C 189.339844 440.078125 184.40625 445.011719 178.316406 445.011719 C 172.226562 445.011719 167.292969 440.078125 167.292969 433.988281 C 167.292969 427.898438 172.226562 422.964844 178.316406 422.964844 C 184.40625 422.964844 189.339844 427.898438 189.339844 433.988281 "/>
<path style="fill:none;stroke-width:0.708661;stroke-linecap:round;stroke-linejoin:round;stroke:rgb(18.431373%,30.980392%,30.980392%);stroke-opacity:1;stroke-miterlimit:10;" d="M 266.882812 433.988281 C 266.882812 440.078125 261.945312 445.011719 255.859375 445.011719 C 249.769531 445.011719 244.832031 440.078125 244.832031 433.988281 C 244.832031 427.898438 249.769531 422.964844 255.859375 422.964844 C 261.945312 422.964844 266.882812 427.898438 266.882812 433.988281 "/>
<path style="fill-rule:nonzero;fill:rgb(18.431373%,30.980392%,30.980392%);fill-opacity:1;stroke-width:0.708661;stroke-linecap:round;stroke-linejoin:round;stroke:rgb(18.431373%,30.980392%,30.980392%);stroke-opacity:1;stroke-miterlimit:10;" d="M 344.421875 433.988281 C 344.421875 440.078125 339.488281 445.011719 333.398438 445.011719 C 327.3125 445.011719 322.375 440.078125 322.375 433.988281 C 322.375 427.898438 327.3125 422.964844 333.398438 422.964844 C 339.488281 422.964844 344.421875 427.898438 344.421875 433.988281 "/>
<path style="fill:none;stroke-width:0.708661;stroke-linecap:round;stroke-linejoin:round;stroke:rgb(18.431373%,30.980392%,30.980392%);stroke-opacity:1;stroke-miterlimit:10;" d="M 421.964844 433.988281 C 421.964844 440.078125 417.027344 445.011719 410.941406 445.011719 C 404.851562 445.011719 399.917969 440.078125 399.917969 433.988281 C 399.917969 427.898438 404.851562 422.964844 410.941406 422.964844 C 417.027344 422.964844 421.964844 427.898438 421.964844 433.988281 "/>
<path style="fill:none;stroke-width:0.708661;stroke-linecap:round;stroke-linejoin:round;stroke:rgb(18.431373%,30.980392%,30.980392%);stroke-opacity:1;stroke-miterlimit:10;" d="M 499.507812 433.988281 C 499.507812 440.078125 494.570312 445.011719 488.480469 445.011719 C 482.394531 445.011719 477.457031 440.078125 477.457031 433.988281 C 477.457031 427.898438 482.394531 422.964844 488.480469 422.964844 C 494.570312 422.964844 499.507812 427.898438 499.507812 433.988281 "/>
<path style="fill:none;stroke-width:0.708661;stroke-linecap:round;stroke-linejoin:round;stroke:rgb(18.431373%,30.980392%,30.980392%);stroke-opacity:1;stroke-miterlimit:10;" d="M 577.046875 433.988281 C 577.046875 440.078125 572.113281 445.011719 566.023438 445.011719 C 559.933594 445.011719 555 440.078125 555 433.988281 C 555 427.898438 559.933594 422.964844 566.023438 422.964844 C 572.113281 422.964844 577.046875 427.898438 577.046875 433.988281 "/>
<path style="fill:none;stroke-width:0.708661;stroke-linecap:round;stroke-linejoin:round;stroke:rgb(18.431373%,30.980392%,30.980392%);stroke-opacity:1;stroke-miterlimit:10;" d="M 654.589844 433.988281 C 654.589844 440.078125 649.652344 445.011719 643.566406 445.011719 C 637.476562 445.011719 632.539062 440.078125 632.539062 433.988281 C 632.539062 427.898438 637.476562 422.964844 643.566406 422.964844 C 649.652344 422.964844 654.589844 427.898438 654.589844 433.988281 "/>
<path style="fill:none;stroke-width:0.708661;stroke-linecap:round;stroke-linejoin:round;stroke:rgb(18.431373%,30.980392%,30.980392%);stroke-opacity:1;stroke-miterlimit:10;" d="M 732.128906 433.988281 C 732.128906 440.078125 727.195312 445.011719 721.105469 445.011719 C 715.019531 445.011719 710.082031 440.078125 710.082031 433.988281 C 710.082031 427.898438 715.019531 422.964844 721.105469 422.964844 C 727.195312 422.964844 732.128906 427.898438 732.128906 433.988281 "/>
<path style="fill:none;stroke-width:0.708661;stroke-linecap:round;stroke-linejoin:round;stroke:rgb(18.431373%,30.980392%,30.980392%);stroke-opacity:1;stroke-miterlimit:10;" d="M 34.257812 382.628906 C 34.257812 388.71875 29.320312 393.652344 23.234375 393.652344 C 17.144531 393.652344 12.210938 388.71875 12.210938 382.628906 C 12.210938 376.539062 17.144531 371.605469 23.234375 371.605469 C 29.320312 371.605469 34.257812 376.539062 34.257812 382.628906 "/>
<path style="fill:none;stroke-width:0.708661;stroke-linecap:round;stroke-linejoin:round;stroke:rgb(18.431373%,30.980392%,30.980392%);stroke-opacity:1;stroke-miterlimit:10;" d="M 111.800781 382.628906 C 111.800781 388.71875 106.863281 393.652344 100.773438 393.652344 C 94.6875 393.652344 89.75 388.71875 89.75 382.628906 C 89.75 376.539062 94.6875 371.605469 100.773438 371.605469 C 106.863281 371.605469 111.800781 376.539062 111.800781 382.628906 "/>
<path style="fill-rule:nonzero;fill:rgb(18.431373%,30.980392%,30.980392%);fill-opacity:1;stroke-width:0.708661;stroke-linecap:round;stroke-linejoin:round;stroke:rgb(18.431373%,30.980392%,30.980392%);stroke-opacity:1;stroke-miterlimit:10;" d="M 189.339844 382.628906 C 189.339844 388.71875 184.40625 393.652344 178.316406 393.652344 C 172.226562 393.652344 167.292969 388.71875 167.292969 382.628906 C 167.292969 376.539062 172.226562 371.605469 178.316406 371.605469 C 184.40625 371.605469 189.339844 376.539062 189.339844 382.628906 "/>
<path style="fill:none;stroke-width:0.708661;stroke-linecap:round;stroke-linejoin:round;stroke:rgb(18.431373%,30.980392%,30.980392%);stroke-opacity:1;stroke-miterlimit:10;" d="M 266.882812 382.628906 C 266.882812 388.71875 261.945312 393.652344 255.859375 393.652344 C 249.769531 393.652344 244.832031 388.71875 244.832031 382.628906 C 244.832031 376.539062 249.769531 371.605469 255.859375 371.605469 C 261.945312 371.605469 266.882812 376.539062 266.882812 382.628906 "/>
<path style="fill:none;stroke-width:0.708661;stroke-linecap:round;stroke-linejoin:round;stroke:rgb(18.431373%,30.980392%,30.980392%);stroke-opacity:1;stroke-miterlimit:10;" d="M 344.421875 382.628906 C 344.421875 388.71875 339.488281 393.652344 333.398438 393.652344 C 327.3125 393.652344 322.375 388.71875 322.375 382.628906 C 322.375 376.539062 327.3125 371.605469 333.398438 371.605469 C 339.488281 371.605469 344.421875 376.539062 344.421875 382.628906 "/>
<path style="fill-rule:nonzero;fill:rgb(18.431373%,30.980392%,30.980392%);fill-opacity:1;stroke-width:0.708661;stroke-linecap:round;stroke-linejoin:round;stroke:rgb(18.431373%,30.980392%,30.980392%);stroke-opacity:1;stroke-miterlimit:10;" d="M 421.964844 382.628906 C 421.964844 388.71875 417.027344 393.652344 410.941406 393.652344 C 404.851562 393.652344 399.917969 388.71875 399.917969 382.628906 C 399.917969 376.539062 404.851562 371.605469 410.941406 371.605469 C 417.027344 371.605469 421.964844 376.539062 421.964844 382.628906 "/>
<path style="fill-rule:nonzero;fill:rgb(18.431373%,30.980392%,30.980392%);fill-opacity:1;stroke-width:0.708661;stroke-linecap:round;stroke-linejoin:round;stroke:rgb(18.431373%,30.980392%,30.980392%);stroke-opacity:1;stroke-miterlimit:10;" d="M 499.507812 382.628906 C 499.507812 388.71875 494.570312 393.652344 488.480469 393.652344 C 482.394531 393.652344 477.457031 388.71875 477.457031 382.628906 C 477.457031 376.539062 482.394531 371.605469 488.480469 371.605469 C 494.570312 371.605469 499.507812 376.539062 499.507812 382.628906 "/>
<path style="fill:none;stroke-width:0.708661;stroke-linecap:round;stroke-linejoin:round;stroke:rgb(18.431373%,30.980392%,30.980392%);stroke-opacity:1;stroke-miterlimit:10;" d="M 577.046875 382.628906 C 577.046875 388.71875 572.113281 393.652344 566.023438 393.652344 C 559.933594 393.652344 555 388.71875 555 382.628906 C 555 376.539062 559.933594 371.605469 566.023438 371.605469 C 572.113281 371.605469 577.046875 376.539062 577.046875 382.628906 "/>
<path style="fill:none;stroke-width:0.708661;stroke-linecap:round;stroke-linejoin:round;stroke:rgb(18.431373%,30.980392%,30.980392%);stroke-opacity:1;stroke-miterlimit:10;" d="M 654.589844 382.628906 C 654.589844 388.71875 649.652344 393.652344 643.566406 393.652344 C 637.476562 393.652344 632.539062 388.71875 632.539062 382.628906 C 632.539062 376.539062 637.476562 371.605469 643.566406 371.605469 C 649.652344 371.605469 654.589844 376.539062 654.589844 382.628906 "/>
<path style="fill:none;stroke-width:0.708661;stroke-linecap:round;stroke-linejoin:round;stroke:rgb(18.431373%,30.980392%,30.980392%);stroke-opacity:1;stroke-miterlimit:10;" d="M 732.128906 382.628906 C 732.128906 388.71875 727.195312 393.652344 721.105469 393.652344 C 715.019531 393.652344 710.082031 388.71875 710.082031 382.628906 C 710.082031 376.539062 715.019531 371.605469 721.105469 371.605469 C 727.195312 371.605469 732.128906 376.539062 732.128906 382.628906 "/>
<path style="fill-rule:nonzero;fill:rgb(18.431373%,30.980392%,30.980392%);fill-opacity:1;stroke-width:0.708661;stroke-linecap:round;stroke-linejoin:round;stroke:rgb(18.431373%,30.980392%,30.980392%);stroke-opacity:1;stroke-miterlimit:10;" d="M 34.257812 331.269531 C 34.257812 337.359375 29.320312 342.292969 23.234375 342.292969 C 17.144531 342.292969 12.210938 337.359375 12.210938 331.269531 C 12.210938 325.179688 17.144531 320.246094 23.234375 320.246094 C 29.320312 320.246094 34.257812 325.179688 34.257812 331.269531 "/>
<path style="fill:none;stroke-width:0.708661;stroke-linecap:round;stroke-linejoin:round;stroke:rgb(18.431373%,30.980392%,30.980392%);stroke-opacity:1;stroke-miterlimit:10;" d="M 111.800781 331.269531 C 111.800781 337.359375 106.863281 342.292969 100.773438 342.292969 C 94.6875 342.292969 89.75 337.359375 89.75 331.269531 C 89.75 325.179688 94.6875 320.246094 100.773438 320.246094 C 106.863281 320.246094 111.800781 325.179688 111.800781 331.269531 "/>
<path style="fill:none;stroke-width:0.708661;stroke-linecap:round;stroke-linejoin:round;stroke:rgb(18.431373%,30.980392%,30.980392%);stroke-opacity:1;stroke-miterlimit:10;" d="M 189.339844 331.269531 C 189.339844 337.359375 184.40625 342.292969 178.316406 342.292969 C 172.226562 342.292969 167.292969 337.359375 167.292969 331.269531 C 167.292969 325.179688 172.226562 320.246094 178.316406 320.246094 C 184.40625 320.246094 189.339844 325.179688 189.339844 331.269531 "/>
<path style="fill-rule:nonzero;fill:rgb(18.431373%,30.980392%,30.980392%);fill-opacity:1;stroke-width:0.708661;stroke-linecap:round;stroke-linejoin:round;stroke:rgb(18.431373%,30.980392%,30.980392%);stroke-opacity:1;stroke-miterlimit:10;" d="M 266.882812 331.269531 C 266.882812 337.359375 261.945312 342.292969 255.859375 342.292969 C 249.769531 342.292969 244.832031 337.359375 244.832031 331.269531 C 244.832031 325.179688 249.769531 320.246094 255.859375 320.246094 C 261.945312 320.246094 266.882812 325.179688 266.882812 331.269531 "/>
<path style="fill-rule:nonzero;fill:rgb(18.431373%,30.980392%,30.980392%);fill-opacity:1;stroke-width:0.708661;stroke-linecap:round;stroke-linejoin:round;stroke:rgb(18.431373%,30.980392%,30.980392%);stroke-opacity:1;stroke-miterlimit:10;" d="M 344.421875 331.269531 C 344.421875 337.359375 339.488281 342.292969 333.398438 342.292969 C 327.3125 342.292969 322.375 337.359375 322.375 331.269531 C 322.375 325.179688 327.3125 320.246094 333.398438 320.246094 C 339.488281 320.246094 344.421875 325.179688 344.421875 331.269531 "/>
<path style="fill-rule:nonzero;fill:rgb(18.431373%,30.980392%,30.980392%);fill-opacity:1;stroke-width:0.708661;stroke-linecap:round;stroke-linejoin:round;stroke:rgb(18.431373%,30.980392%,30.980392%);stroke-opacity:1;stroke-miterlimit:10;" d="M 421.964844 331.269531 C 421.964844 337.359375 417.027344 342.292969 410.941406 342.292969 C 404.851562 342.292969 399.917969 337.359375 399.917969 331.269531 C 399.917969 325.179688 404.851562 320.246094 410.941406 320.246094 C 417.027344 320.246094 421.964844 325.179688 421.964844 331.269531 "/>
<path style="fill:none;stroke-width:0.708661;stroke-linecap:round;stroke-linejoin:round;stroke:rgb(18.431373%,30.980392%,30.980392%);stroke-opacity:1;stroke-miterlimit:10;" d="M 499.507812 331.269531 C 499.507812 337.359375 494.570312 342.292969 488.480469 342.292969 C 482.394531 342.292969 477.457031 337.359375 477.457031 331.269531 C 477.457031 325.179688 482.394531 320.246094 488.480469 320.246094 C 494.570312 320.246094 499.507812 325.179688 499.507812 331.269531 "/>
<path style="fill:none;stroke-width:0.708661;stroke-linecap:round;stroke-linejoin:round;stroke:rgb(18.431373%,30.980392%,30.980392%);stroke-opacity:1;stroke-miterlimit:10;" d="M 577.046875 331.269531 C 577.046875 337.359375 572.113281 342.292969 566.023438 342.292969 C 559.933594 342.292969 555 337.359375 555 331.269531 C 555 325.179688 559.933594 320.246094 566.023438 320.246094 C 572.113281 320.246094 577.046875 325.179688 577.046875 331.269531 "/>
<path style="fill:none;stroke-width:0.708661;stroke-linecap:round;stroke-linejoin:round;stroke:rgb(18.431373%,30.980392%,30.980392%);stroke-opacity:1;stroke-miterlimit:10;" d="M 654.589844 331.269531 C 654.589844 337.359375 649.652344 342.292969 643.566406 342.292969 C 637.476562 342.292969 632.539062 337.359375 632.539062 331.269531 C 632.539062 325.179688 637.476562 320.246094 643.566406 320.246094 C 649.652344 320.246094 654.589844 325.179688 654.589844 331.269531 "/>
<path style="fill:none;stroke-width:0.708661;stroke-linecap:round;stroke-linejoin:round;stroke:rgb(18.431373%,30.980392%,30.980392%);stroke-opacity:1;stroke-miterlimit:10;" d="M 732.128906 331.269531 C 732.128906 337.359375 727.195312 342.292969 721.105469 342.292969 C 715.019531 342.292969 710.082031 337.359375 710.082031 331.269531 C 710.082031 325.179688 715.019531 320.246094 721.105469 320.246094 C 727.195312 320.246094 732.128906 325.179688 732.128906 331.269531 "/>
<path style="fill-rule:nonzero;fill:rgb(18.431373%,30.980392%,30.980392%);fill-opacity:1;stroke-width:0.708661;stroke-linecap:round;stroke-linejoin:round;stroke:rgb(18.431373%,30.980392%,30.980392%);stroke-opacity:1;stroke-miterlimit:10;" d="M 34.257812 279.910156 C 34.257812 286 29.320312 290.933594 23.234375 290.933594 C 17.144531 290.933594 12.210938 286 12.210938 279.910156 C 12.210938 273.820312 17.144531 268.886719 23.234375 268.886719 C 29.320312 268.886719 34.257812 273.820312 34.257812 279.910156 "/>
<path style="fill:none;stroke-width:0.708661;stroke-linecap:round;stroke-linejoin:round;stroke:rgb(18.431373%,30.980392%,30.980392%);stroke-opacity:1;stroke-miterlimit:10;" d="M 111.800781 279.910156 C 111.800781 286 106.863281 290.933594 100.773438 290.933594 C 94.6875 290.933594 89.75 286 89.75 279.910156 C 89.75 273.820312 94.6875 268.886719 100.773438 268.886719 C 106.863281 268.886719 111.800781 273.820312 111.800781 279.910156 "/>
<path style="fill:none;stroke-width:0.708661;stroke-linecap:round;stroke-linejoin:round;stroke:rgb(18.431373%,30.980392%,30.980392%);stroke-opacity:1;stroke-miterlimit:10;" d="M 189.339844 279.910156 C 189.339844 286 184.40625 290.933594 178.316406 290.933594 C 172.226562 290.933594 167.292969 286 167.292969 279.910156 C 167.292969 273.820312 172.226562 268.886719 178.316406 268.886719 C 184.40625 268.886719 189.339844 273.820312 189.339844 279.910156 "/>
<path style="fill-rule:nonzero;fill:rgb(18.431373%,30.980392%,30.980392%);fill-opacity:1;stroke-width:0.708661;stroke-linecap:round;stroke-linejoin:round;stroke:rgb(18.431373%,30.980392%,30.980392%);stroke-opacity:1;stroke-miterlimit:10;" d="M 266.882812 279.910156 C 266.882812 286 261.945312 290.933594 255.859375 290.933594 C 249.769531 290.933594 244.832031 286 244.832031 279.910156 C 244.832031 273.820312 249.769531 268.886719 255.859375 268.886719 C 261.945312 268.886719 266.882812 273.820312 266.882812 279.910156 "/>
<path style="fill:none;stroke-width:0.708661;stroke-linecap:round;stroke-linejoin:round;stroke:rgb(18.431373%,30.980392%,30.980392%);stroke-opacity:1;stroke-miterlimit:10;" d="M 344.421875 279.910156 C 344.421875 286 339.488281 290.933594 333.398438 290.933594 C 327.3125 290.933594 322.375 286 322.375 279.910156 C 322.375 273.820312 327.3125 268.886719 333.398438 268.886719 C 339.488281 268.886719 344.421875 273.820312 344.421875 279.910156 "/>
<path style="fill:none;stroke-width:0.708661;stroke-linecap:round;stroke-linejoin:round;stroke:rgb(18.431373%,30.980392%,30.980392%);stroke-opacity:1;stroke-miterlimit:10;" d="M 421.964844 279.910156 C 421.964844 286 417.027344 290.933594 410.941406 290.933594 C 404.851562 290.933594 399.917969 286 399.917969 279.910156 C 399.917969 273.820312 404.851562 268.886719 410.941406 268.886719 C 417.027344 268.886719 421.964844 273.820312 421.964844 279.910156 "/>
<path style="fill:none;stroke-width:0.708661;stroke-linecap:round;stroke-linejoin:round;stroke:rgb(18.431373%,30.980392%,30.980392%);stroke-opacity:1;stroke-miterlimit:10;" d="M 499.507812 279.910156 C 499.507812 286 494.570312 290.933594 488.480469 290.933594 C 482.394531 290.933594 477.457031 286 477.457031 279.910156 C 477.457031 273.820312 482.394531 268.886719 488.480469 268.886719 C 494.570312 268.886719 499.507812 273.820312 499.507812 279.910156 "/>
<path style="fill:none;stroke-width:0.708661;stroke-linecap:round;stroke-linejoin:round;stroke:rgb(18.431373%,30.980392%,30.980392%);stroke-opacity:1;stroke-miterlimit:10;" d="M 577.046875 279.910156 C 577.046875 286 572.113281 290.933594 566.023438 290.933594 C 559.933594 290.933594 555 286 555 279.910156 C 555 273.820312 559.933594 268.886719 566.023438 268.886719 C 572.113281 268.886719 577.046875 273.820312 577.046875 279.910156 "/>
<path style="fill:none;stroke-width:0.708661;stroke-linecap:round;stroke-linejoin:round;stroke:rgb(18.431373%,30.980392%,30.980392%);stroke-opacity:1;stroke-miterlimit:10;" d="M 654.589844 279.910156 C 654.589844 286 649.652344 290.933594 643.566406 290.933594 C 637.476562 290.933594 632.539062 286 632.539062 279.910156 C 632.539062 273.820312 637.476562 268.886719 643.566406 268.886719 C 649.652344 268.886719 654.589844 273.820312 654.589844 279.910156 "/>
<path style="fill:none;stroke-width:0.708661;stroke-linecap:round;stroke-linejoin:round;stroke:rgb(18.431373%,30.980392%,30.980392%);stroke-opacity:1;stroke-miterlimit:10;" d="M 732.128906 279.910156 C 732.128906 286 727.195312 290.933594 721.105469 290.933594 C 715.019531 290.933594 710.082031 286 710.082031 279.910156 C 710.082031 273.820312 715.019531 268.886719 721.105469 268.886719 C 727.195312 268.886719 732.128906 273.820312 732.128906 279.910156 "/>
<path style="fill:none;stroke-width:0.708661;stroke-linecap:round;stroke-linejoin:round;stroke:rgb(18.431373%,30.980392%,30.980392%);stroke-opacity:1;stroke-miterlimit:10;" d="M 34.257812 228.550781 C 34.257812 234.640625 29.320312 239.574219 23.234375 239.574219 C 17.144531 239.574219 12.210938 234.640625 12.210938 228.550781 C 12.210938 222.460938 17.144531 217.527344 23.234375 217.527344 C 29.320312 217.527344 34.257812 222.460938 34.257812 228.550781 "/>
<path style="fill:none;stroke-width:0.708661;stroke-linecap:round;stroke-linejoin:round;stroke:rgb(18.431373%,30.980392%,30.980392%);stroke-opacity:1;stroke-miterlimit:10;" d="M 111.800781 228.550781 C 111.800781 234.640625 106.863281 239.574219 100.773438 239.574219 C 94.6875 239.574219 89.75 234.640625 89.75 228.550781 C 89.75 222.460938 94.6875 217.527344 100.773438 217.527344 C 106.863281 217.527344 111.800781 222.460938 111.800781 228.550781 "/>
<path style="fill:none;stroke-width:0.708661;stroke-linecap:round;stroke-linejoin:round;stroke:rgb(18.431373%,30.980392%,30.980392%);stroke-opacity:1;stroke-miterlimit:10;" d="M 189.339844 228.550781 C 189.339844 234.640625 184.40625 239.574219 178.316406 239.574219 C 172.226562 239.574219 167.292969 234.640625 167.292969 228.550781 C 167.292969 222.460938 172.226562 217.527344 178.316406 217.527344 C 184.40625 217.527344 189.339844 222.460938 189.339844 228.550781 "/>
<path style="fill-rule:nonzero;fill:rgb(18.431373%,30.980392%,30.980392%);fill-opacity:1;stroke-width:0.708661;stroke-linecap:round;stroke-linejoin:round;stroke:rgb(18.431373%,30.980392%,30.980392%);stroke-opacity:1;stroke-miterlimit:10;" d="M 266.882812 228.550781 C 266.882812 234.640625 261.945312 239.574219 255.859375 239.574219 C 249.769531 239.574219 244.832031 234.640625 244.832031 228.550781 C 244.832031 222.460938 249.769531 217.527344 255.859375 217.527344 C 261.945312 217.527344 266.882812 222.460938 266.882812 228.550781 "/>
<path style="fill-rule:nonzero;fill:rgb(18.431373%,30.980392%,30.980392%);fill-opacity:1;stroke-width:0.708661;stroke-linecap:round;stroke-linejoin:round;stroke:rgb(18.431373%,30.980392%,30.980392%);stroke-opacity:1;stroke-miterlimit:10;" d="M 344.421875 228.550781 C 344.421875 234.640625 339.488281 239.574219 333.398438 239.574219 C 327.3125 239.574219 322.375 234.640625 322.375 228.550781 C 322.375 222.460938 327.3125 217.527344 333.398438 217.527344 C 339.488281 217.527344 344.421875 222.460938 344.421875 228.550781 "/>
<path style="fill-rule:nonzero;fill:rgb(18.431373%,30.980392%,30.980392%);fill-opacity:1;stroke-width:0.708661;stroke-linecap:round;stroke-linejoin:round;stroke:rgb(18.431373%,30.980392%,30.980392%);stroke-opacity:1;stroke-miterlimit:10;" d="M 421.964844 228.550781 C 421.964844 234.640625 417.027344 239.574219 410.941406 239.574219 C 404.851562 239.574219 399.917969 234.640625 399.917969 228.550781 C 399.917969 222.460938 404.851562 217.527344 410.941406 217.527344 C 417.027344 217.527344 421.964844 222.460938 421.964844 228.550781 "/>
<path style="fill:none;stroke-width:0.708661;stroke-linecap:round;stroke-linejoin:round;stroke:rgb(18.431373%,30.980392%,30.980392%);stroke-opacity:1;stroke-miterlimit:10;" d="M 499.507812 228.550781 C 499.507812 234.640625 494.570312 239.574219 488.480469 239.574219 C 482.394531 239.574219 477.457031 234.640625 477.457031 228.550781 C 477.457031 222.460938 482.394531 217.527344 488.480469 217.527344 C 494.570312 217.527344 499.507812 222.460938 499.507812 228.550781 "/>
<path style="fill-rule:nonzero;fill:rgb(18.431373%,30.980392%,30.980392%);fill-opacity:1;stroke-width:0.708661;stroke-linecap:round;stroke-linejoin:round;stroke:rgb(18.431373%,30.980392%,30.980392%);stroke-opacity:1;stroke-miterlimit:10;" d="M 577.046875 228.550781 C 577.046875 234.640625 572.113281 239.574219 566.023438 239.574219 C 559.933594 239.574219 555 234.640625 555 228.550781 C 555 222.460938 559.933594 217.527344 566.023438 217.527344 C 572.113281 217.527344 577.046875 222.460938 577.046875 228.550781 "/>
<path style="fill:none;stroke-width:0.708661;stroke-linecap:round;stroke-linejoin:round;stroke:rgb(18.431373%,30.980392%,30.980392%);stroke-opacity:1;stroke-miterlimit:10;" d="M 654.589844 228.550781 C 654.589844 234.640625 649.652344 239.574219 643.566406 239.574219 C 637.476562 239.574219 632.539062 234.640625 632.539062 228.550781 C 632.539062 222.460938 637.476562 217.527344 643.566406 217.527344 C 649.652344 217.527344 654.589844 222.460938 654.589844 228.550781 "/>
<path style="fill:none;stroke-width:0.708661;stroke-linecap:round;stroke-linejoin:round;stroke:rgb(18.431373%,30.980392%,30.980392%);stroke-opacity:1;stroke-miterlimit:10;" d="M 732.128906 228.550781 C 732.128906 234.640625 727.195312 239.574219 721.105469 239.574219 C 715.019531 239.574219 710.082031 234.640625 710.082031 228.550781 C 710.082031 222.460938 715.019531 217.527344 721.105469 217.527344 C 727.195312 217.527344 732.128906 222.460938 732.128906 228.550781 "/>
<path style="fill:none;stroke-width:0.708661;stroke-linecap:round;stroke-linejoin:round;stroke:rgb(18.431373%,30.980392%,30.980392%);stroke-opacity:1;stroke-miterlimit:10;" d="M 34.257812 177.191406 C 34.257812 183.277344 29.320312 188.214844 23.234375 188.214844 C 17.144531 188.214844 12.210938 183.277344 12.210938 177.191406 C 12.210938 171.101562 17.144531 166.167969 23.234375 166.167969 C 29.320312 166.167969 34.257812 171.101562 34.257812 177.191406 "/>
<path style="fill:none;stroke-width:0.708661;stroke-linecap:round;stroke-linejoin:round;stroke:rgb(18.431373%,30.980392%,30.980392%);stroke-opacity:1;stroke-miterlimit:10;" d="M 111.800781 177.191406 C 111.800781 183.277344 106.863281 188.214844 100.773438 188.214844 C 94.6875 188.214844 89.75 183.277344 89.75 177.191406 C 89.75 171.101562 94.6875 166.167969 100.773438 166.167969 C 106.863281 166.167969 111.800781 171.101562 111.800781 177.191406 "/>
<path style="fill:none;stroke-width:0.708661;stroke-linecap:round;stroke-linejoin:round;stroke:rgb(18.431373%,30.980392%,30.980392%);stroke-opacity:1;stroke-miterlimit:10;" d="M 189.339844 177.191406 C 189.339844 183.277344 184.40625 188.214844 178.316406 188.214844 C 172.226562 188.214844 167.292969 183.277344 167.292969 177.191406 C 167.292969 171.101562 172.226562 166.167969 178.316406 166.167969 C 184.40625 166.167969 189.339844 171.101562 189.339844 177.191406 "/>
<path style="fill:none;stroke-width:0.708661;stroke-linecap:round;stroke-linejoin:round;stroke:rgb(18.431373%,30.980392%,30.980392%);stroke-opacity:1;stroke-miterlimit:10;" d="M 266.882812 177.191406 C 266.882812 183.277344 261.945312 188.214844 255.859375 188.214844 C 249.769531 188.214844 244.832031 183.277344 244.832031 177.191406 C 244.832031 171.101562 249.769531 166.167969 255.859375 166.167969 C 261.945312 166.167969 266.882812 171.101562 266.882812 177.191406 "/>
<path style="fill-rule:nonzero;fill:rgb(18.431373%,30.980392%,30.980392%);fill-opacity:1;stroke-width:0.708661;stroke-linecap:round;stroke-linejoin:round;stroke:rgb(18.431373%,30.980392%,30.980392%);stroke-opacity:1;stroke-miterlimit:10;" d="M 344.421875 177.191406 C 344.421875 183.277344 339.488281 188.214844 333.398438 188.214844 C 327.3125 188.214844 322.375 183.277344 322.375 177.191406 C 322.375 171.101562 327.3125 166.167969 333.398438 166.167969 C 339.488281 166.167969 344.421875 171.101562 344.421875 177.191406 "/>
<path style="fill:none;stroke-width:0.708661;stroke-linecap:round;stroke-linejoin:round;stroke:rgb(18.431373%,30.980392%,30.980392%);stroke-opacity:1;stroke-miterlimit:10;" d="M 421.964844 177.191406 C 421.964844 183.277344 417.027344 188.214844 410.941406 188.214844 C 404.851562 188.214844 399.917969 183.277344 399.917969 177.191406 C 399.917969 171.101562 404.851562 166.167969 410.941406 166.167969 C 417.027344 166.167969 421.964844 171.101562 421.964844 177.191406 "/>
<path style="fill:none;stroke-width:0.708661;stroke-linecap:round;stroke-linejoin:round;stroke:rgb(18.431373%,30.980392%,30.980392%);stroke-opacity:1;stroke-miterlimit:10;" d="M 499.507812 177.191406 C 499.507812 183.277344 494.570312 188.214844 488.480469 188.214844 C 482.394531 188.214844 477.457031 183.277344 477.457031 177.191406 C 477.457031 171.101562 482.394531 166.167969 488.480469 166.167969 C 494.570312 166.167969 499.507812 171.101562 499.507812 177.191406 "/>
<path style="fill:none;stroke-width:0.708661;stroke-linecap:round;stroke-linejoin:round;stroke:rgb(18.431373%,30.980392%,30.980392%);stroke-opacity:1;stroke-miterlimit:10;" d="M 577.046875 177.191406 C 577.046875 183.277344 572.113281 188.214844 566.023438 188.214844 C 559.933594 188.214844 555 183.277344 555 177.191406 C 555 171.101562 559.933594 166.167969 566.023438 166.167969 C 572.113281 166.167969 577.046875 171.101562 577.046875 177.191406 "/>
<path style="fill-rule:nonzero;fill:rgb(18.431373%,30.980392%,30.980392%);fill-opacity:1;stroke-width:0.708661;stroke-linecap:round;stroke-linejoin:round;stroke:rgb(18.431373%,30.980392%,30.980392%);stroke-opacity:1;stroke-miterlimit:10;" d="M 654.589844 177.191406 C 654.589844 183.277344 649.652344 188.214844 643.566406 188.214844 C 637.476562 188.214844 632.539062 183.277344 632.539062 177.191406 C 632.539062 171.101562 637.476562 166.167969 643.566406 166.167969 C 649.652344 166.167969 654.589844 171.101562 654.589844 177.191406 "/>
<path style="fill:none;stroke-width:0.708661;stroke-linecap:round;stroke-linejoin:round;stroke:rgb(18.431373%,30.980392%,30.980392%);stroke-opacity:1;stroke-miterlimit:10;" d="M 732.128906 177.191406 C 732.128906 183.277344 727.195312 188.214844 721.105469 188.214844 C 715.019531 188.214844 710.082031 183.277344 710.082031 177.191406 C 710.082031 171.101562 715.019531 166.167969 721.105469 166.167969 C 727.195312 166.167969 732.128906 171.101562 732.128906 177.191406 "/>
<path style="fill:none;stroke-width:0.708661;stroke-linecap:round;stroke-linejoin:round;stroke:rgb(18.431373%,30.980392%,30.980392%);stroke-opacity:1;stroke-miterlimit:10;" d="M 34.257812 125.832031 C 34.257812 131.917969 29.320312 136.855469 23.234375 136.855469 C 17.144531 136.855469 12.210938 131.917969 12.210938 125.832031 C 12.210938 119.742188 17.144531 114.808594 23.234375 114.808594 C 29.320312 114.808594 34.257812 119.742188 34.257812 125.832031 "/>
<path style="fill-rule:nonzero;fill:rgb(18.431373%,30.980392%,30.980392%);fill-opacity:1;stroke-width:0.708661;stroke-linecap:round;stroke-linejoin:round;stroke:rgb(18.431373%,30.980392%,30.980392%);stroke-opacity:1;stroke-miterlimit:10;" d="M 111.800781 125.832031 C 111.800781 131.917969 106.863281 136.855469 100.773438 136.855469 C 94.6875 136.855469 89.75 131.917969 89.75 125.832031 C 89.75 119.742188 94.6875 114.808594 100.773438 114.808594 C 106.863281 114.808594 111.800781 119.742188 111.800781 125.832031 "/>
<path style="fill-rule:nonzero;fill:rgb(18.431373%,30.980392%,30.980392%);fill-opacity:1;stroke-width:0.708661;stroke-linecap:round;stroke-linejoin:round;stroke:rgb(18.431373%,30.980392%,30.980392%);stroke-opacity:1;stroke-miterlimit:10;" d="M 189.339844 125.832031 C 189.339844 131.917969 184.40625 136.855469 178.316406 136.855469 C 172.226562 136.855469 167.292969 131.917969 167.292969 125.832031 C 167.292969 119.742188 172.226562 114.808594 178.316406 114.808594 C 184.40625 114.808594 189.339844 119.742188 189.339844 125.832031 "/>
<path style="fill-rule:nonzero;fill:rgb(18.431373%,30.980392%,30.980392%);fill-opacity:1;stroke-width:0.708661;stroke-linecap:round;stroke-linejoin:round;stroke:rgb(18.431373%,30.980392%,30.980392%);stroke-opacity:1;stroke-miterlimit:10;" d="M 266.882812 125.832031 C 266.882812 131.917969 261.945312 136.855469 255.859375 136.855469 C 249.769531 136.855469 244.832031 131.917969 244.832031 125.832031 C 244.832031 119.742188 249.769531 114.808594 255.859375 114.808594 C 261.945312 114.808594 266.882812 119.742188 266.882812 125.832031 "/>
<path style="fill:none;stroke-width:0.708661;stroke-linecap:round;stroke-linejoin:round;stroke:rgb(18.431373%,30.980392%,30.980392%);stroke-opacity:1;stroke-miterlimit:10;" d="M 344.421875 125.832031 C 344.421875 131.917969 339.488281 136.855469 333.398438 136.855469 C 327.3125 136.855469 322.375 131.917969 322.375 125.832031 C 322.375 119.742188 327.3125 114.808594 333.398438 114.808594 C 339.488281 114.808594 344.421875 119.742188 344.421875 125.832031 "/>
<path style="fill:none;stroke-width:0.708661;stroke-linecap:round;stroke-linejoin:round;stroke:rgb(18.431373%,30.980392%,30.980392%);stroke-opacity:1;stroke-miterlimit:10;" d="M 421.964844 125.832031 C 421.964844 131.917969 417.027344 136.855469 410.941406 136.855469 C 404.851562 136.855469 399.917969 131.917969 399.917969 125.832031 C 399.917969 119.742188 404.851562 114.808594 410.941406 114.808594 C 417.027344 114.808594 421.964844 119.742188 421.964844 125.832031 "/>
<path style="fill:none;stroke-width:0.708661;stroke-linecap:round;stroke-linejoin:round;stroke:rgb(18.431373%,30.980392%,30.980392%);stroke-opacity:1;stroke-miterlimit:10;" d="M 499.507812 125.832031 C 499.507812 131.917969 494.570312 136.855469 488.480469 136.855469 C 482.394531 136.855469 477.457031 131.917969 477.457031 125.832031 C 477.457031 119.742188 482.394531 114.808594 488.480469 114.808594 C 494.570312 114.808594 499.507812 119.742188 499.507812 125.832031 "/>
<path style="fill:none;stroke-width:0.708661;stroke-linecap:round;stroke-linejoin:round;stroke:rgb(18.431373%,30.980392%,30.980392%);stroke-opacity:1;stroke-miterlimit:10;" d="M 577.046875 125.832031 C 577.046875 131.917969 572.113281 136.855469 566.023438 136.855469 C 559.933594 136.855469 555 131.917969 555 125.832031 C 555 119.742188 559.933594 114.808594 566.023438 114.808594 C 572.113281 114.808594 577.046875 119.742188 577.046875 125.832031 "/>
<path style="fill-rule:nonzero;fill:rgb(18.431373%,30.980392%,30.980392%);fill-opacity:1;stroke-width:0.708661;stroke-linecap:round;stroke-linejoin:round;stroke:rgb(18.431373%,30.980392%,30.980392%);stroke-opacity:1;stroke-miterlimit:10;" d="M 654.589844 125.832031 C 654.589844 131.917969 649.652344 136.855469 643.566406 136.855469 C 637.476562 136.855469 632.539062 131.917969 632.539062 125.832031 C 632.539062 119.742188 637.476562 114.808594 643.566406 114.808594 C 649.652344 114.808594 654.589844 119.742188 654.589844 125.832031 "/>
<path style="fill-rule:nonzero;fill:rgb(18.431373%,30.980392%,30.980392%);fill-opacity:1;stroke-width:0.708661;stroke-linecap:round;stroke-linejoin:round;stroke:rgb(18.431373%,30.980392%,30.980392%);stroke-opacity:1;stroke-miterlimit:10;" d="M 732.128906 125.832031 C 732.128906 131.917969 727.195312 136.855469 721.105469 136.855469 C 715.019531 136.855469 710.082031 131.917969 710.082031 125.832031 C 710.082031 119.742188 715.019531 114.808594 721.105469 114.808594 C 727.195312 114.808594 732.128906 119.742188 732.128906 125.832031 "/>
<path style="fill:none;stroke-width:0.708661;stroke-linecap:round;stroke-linejoin:round;stroke:rgb(18.431373%,30.980392%,30.980392%);stroke-opacity:1;stroke-miterlimit:10;" d="M 34.257812 74.472656 C 34.257812 80.558594 29.320312 85.496094 23.234375 85.496094 C 17.144531 85.496094 12.210938 80.558594 12.210938 74.472656 C 12.210938 68.382812 17.144531 63.449219 23.234375 63.449219 C 29.320312 63.449219 34.257812 68.382812 34.257812 74.472656 "/>
<path style="fill:none;stroke-width:0.708661;stroke-linecap:round;stroke-linejoin:round;stroke:rgb(18.431373%,30.980392%,30.980392%);stroke-opacity:1;stroke-miterlimit:10;" d="M 111.800781 74.472656 C 111.800781 80.558594 106.863281 85.496094 100.773438 85.496094 C 94.6875 85.496094 89.75 80.558594 89.75 74.472656 C 89.75 68.382812 94.6875 63.449219 100.773438 63.449219 C 106.863281 63.449219 111.800781 68.382812 111.800781 74.472656 "/>
<path style="fill-rule:nonzero;fill:rgb(18.431373%,30.980392%,30.980392%);fill-opacity:1;stroke-width:0.708661;stroke-linecap:round;stroke-linejoin:round;stroke:rgb(18.431373%,30.980392%,30.980392%);stroke-opacity:1;stroke-miterlimit:10;" d="M 189.339844 74.472656 C 189.339844 80.558594 184.40625 85.496094 178.316406 85.496094 C 172.226562 85.496094 167.292969 80.558594 167.292969 74.472656 C 167.292969 68.382812 172.226562 63.449219 178.316406 63.449219 C 184.40625 63.449219 189.339844 68.382812 189.339844 74.472656 "/>
<path style="fill-rule:nonzero;fill:rgb(18.431373%,30.980392%,30.980392%);fill-opacity:1;stroke-width:0.708661;stroke-linecap:round;stroke-linejoin:round;stroke:rgb(18.431373%,30.980392%,30.980392%);stroke-opacity:1;stroke-miterlimit:10;" d="M 266.882812 74.472656 C 266.882812 80.558594 261.945312 85.496094 255.859375 85.496094 C 249.769531 85.496094 244.832031 80.558594 244.832031 74.472656 C 244.832031 68.382812 249.769531 63.449219 255.859375 63.449219 C 261.945312 63.449219 266.882812 68.382812 266.882812 74.472656 "/>
<path style="fill-rule:nonzero;fill:rgb(18.431373%,30.980392%,30.980392%);fill-opacity:1;stroke-width:0.708661;stroke-linecap:round;stroke-linejoin:round;stroke:rgb(18.431373%,30.980392%,30.980392%);stroke-opacity:1;stroke-miterlimit:10;" d="M 344.421875 74.472656 C 344.421875 80.558594 339.488281 85.496094 333.398438 85.496094 C 327.3125 85.496094 322.375 80.558594 322.375 74.472656 C 322.375 68.382812 327.3125 63.449219 333.398438 63.449219 C 339.488281 63.449219 344.421875 68.382812 344.421875 74.472656 "/>
<path style="fill:none;stroke-width:0.708661;stroke-linecap:round;stroke-linejoin:round;stroke:rgb(18.431373%,30.980392%,30.980392%);stroke-opacity:1;stroke-miterlimit:10;" d="M 421.964844 74.472656 C 421.964844 80.558594 417.027344 85.496094 410.941406 85.496094 C 404.851562 85.496094 399.917969 80.558594 399.917969 74.472656 C 399.917969 68.382812 404.851562 63.449219 410.941406 63.449219 C 417.027344 63.449219 421.964844 68.382812 421.964844 74.472656 "/>
<path style="fill:none;stroke-width:0.708661;stroke-linecap:round;stroke-linejoin:round;stroke:rgb(18.431373%,30.980392%,30.980392%);stroke-opacity:1;stroke-miterlimit:10;" d="M 499.507812 74.472656 C 499.507812 80.558594 494.570312 85.496094 488.480469 85.496094 C 482.394531 85.496094 477.457031 80.558594 477.457031 74.472656 C 477.457031 68.382812 482.394531 63.449219 488.480469 63.449219 C 494.570312 63.449219 499.507812 68.382812 499.507812 74.472656 "/>
<path style="fill:none;stroke-width:0.708661;stroke-linecap:round;stroke-linejoin:round;stroke:rgb(18.431373%,30.980392%,30.980392%);stroke-opacity:1;stroke-miterlimit:10;" d="M 577.046875 74.472656 C 577.046875 80.558594 572.113281 85.496094 566.023438 85.496094 C 559.933594 85.496094 555 80.558594 555 74.472656 C 555 68.382812 559.933594 63.449219 566.023438 63.449219 C 572.113281 63.449219 577.046875 68.382812 577.046875 74.472656 "/>
<path style="fill:none;stroke-width:0.708661;stroke-linecap:round;stroke-linejoin:round;stroke:rgb(18.431373%,30.980392%,30.980392%);stroke-opacity:1;stroke-miterlimit:10;" d="M 654.589844 74.472656 C 654.589844 80.558594 649.652344 85.496094 643.566406 85.496094 C 637.476562 85.496094 632.539062 80.558594 632.539062 74.472656 C 632.539062 68.382812 637.476562 63.449219 643.566406 63.449219 C 649.652344 63.449219 654.589844 68.382812 654.589844 74.472656 "/>
<path style="fill:none;stroke-width:0.708661;stroke-linecap:round;stroke-linejoin:round;stroke:rgb(18.431373%,30.980392%,30.980392%);stroke-opacity:1;stroke-miterlimit:10;" d="M 732.128906 74.472656 C 732.128906 80.558594 727.195312 85.496094 721.105469 85.496094 C 715.019531 85.496094 710.082031 80.558594 710.082031 74.472656 C 710.082031 68.382812 715.019531 63.449219 721.105469 63.449219 C 727.195312 63.449219 732.128906 68.382812 732.128906 74.472656 "/>
<path style="fill:none;stroke-width:0.708661;stroke-linecap:round;stroke-linejoin:round;stroke:rgb(18.431373%,30.980392%,30.980392%);stroke-opacity:1;stroke-miterlimit:10;" d="M 34.257812 23.113281 C 34.257812 29.199219 29.320312 34.136719 23.234375 34.136719 C 17.144531 34.136719 12.210938 29.199219 12.210938 23.113281 C 12.210938 17.023438 17.144531 12.085938 23.234375 12.085938 C 29.320312 12.085938 34.257812 17.023438 34.257812 23.113281 "/>
<path style="fill:none;stroke-width:0.708661;stroke-linecap:round;stroke-linejoin:round;stroke:rgb(18.431373%,30.980392%,30.980392%);stroke-opacity:1;stroke-miterlimit:10;" d="M 111.800781 23.113281 C 111.800781 29.199219 106.863281 34.136719 100.773438 34.136719 C 94.6875 34.136719 89.75 29.199219 89.75 23.113281 C 89.75 17.023438 94.6875 12.085938 100.773438 12.085938 C 106.863281 12.085938 111.800781 17.023438 111.800781 23.113281 "/>
<path style="fill-rule:nonzero;fill:rgb(18.431373%,30.980392%,30.980392%);fill-opacity:1;stroke-width:0.708661;stroke-linecap:round;stroke-linejoin:round;stroke:rgb(18.431373%,30.980392%,30.980392%);stroke-opacity:1;stroke-miterlimit:10;" d="M 189.339844 23.113281 C 189.339844 29.199219 184.40625 34.136719 178.316406 34.136719 C 172.226562 34.136719 167.292969 29.199219 167.292969 23.113281 C 167.292969 17.023438 172.226562 12.085938 178.316406 12.085938 C 184.40625 12.085938 189.339844 17.023438 189.339844 23.113281 "/>
<path style="fill:none;stroke-width:0.708661;stroke-linecap:round;stroke-linejoin:round;stroke:rgb(18.431373%,30.980392%,30.980392%);stroke-opacity:1;stroke-miterlimit:10;" d="M 266.882812 23.113281 C 266.882812 29.199219 261.945312 34.136719 255.859375 34.136719 C 249.769531 34.136719 244.832031 29.199219 244.832031 23.113281 C 244.832031 17.023438 249.769531 12.085938 255.859375 12.085938 C 261.945312 12.085938 266.882812 17.023438 266.882812 23.113281 "/>
<path style="fill:none;stroke-width:0.708661;stroke-linecap:round;stroke-linejoin:round;stroke:rgb(18.431373%,30.980392%,30.980392%);stroke-opacity:1;stroke-miterlimit:10;" d="M 344.421875 23.113281 C 344.421875 29.199219 339.488281 34.136719 333.398438 34.136719 C 327.3125 34.136719 322.375 29.199219 322.375 23.113281 C 322.375 17.023438 327.3125 12.085938 333.398438 12.085938 C 339.488281 12.085938 344.421875 17.023438 344.421875 23.113281 "/>
<path style="fill:none;stroke-width:0.708661;stroke-linecap:round;stroke-linejoin:round;stroke:rgb(18.431373%,30.980392%,30.980392%);stroke-opacity:1;stroke-miterlimit:10;" d="M 421.964844 23.113281 C 421.964844 29.199219 417.027344 34.136719 410.941406 34.136719 C 404.851562 34.136719 399.917969 29.199219 399.917969 23.113281 C 399.917969 17.023438 404.851562 12.085938 410.941406 12.085938 C 417.027344 12.085938 421.964844 17.023438 421.964844 23.113281 "/>
<path style="fill:none;stroke-width:0.708661;stroke-linecap:round;stroke-linejoin:round;stroke:rgb(18.431373%,30.980392%,30.980392%);stroke-opacity:1;stroke-miterlimit:10;" d="M 499.507812 23.113281 C 499.507812 29.199219 494.570312 34.136719 488.480469 34.136719 C 482.394531 34.136719 477.457031 29.199219 477.457031 23.113281 C 477.457031 17.023438 482.394531 12.085938 488.480469 12.085938 C 494.570312 12.085938 499.507812 17.023438 499.507812 23.113281 "/>
<path style="fill-rule:nonzero;fill:rgb(18.431373%,30.980392%,30.980392%);fill-opacity:1;stroke-width:0.708661;stroke-linecap:round;stroke-linejoin:round;stroke:rgb(18.431373%,30.980392%,30.980392%);stroke-opacity:1;stroke-miterlimit:10;" d="M 577.046875 23.113281 C 577.046875 29.199219 572.113281 34.136719 566.023438 34.136719 C 559.933594 34.136719 555 29.199219 555 23.113281 C 555 17.023438 559.933594 12.085938 566.023438 12.085938 C 572.113281 12.085938 577.046875 17.023438 577.046875 23.113281 "/>
<path style="fill-rule:nonzero;fill:rgb(18.431373%,30.980392%,30.980392%);fill-opacity:1;stroke-width:0.708661;stroke-linecap:round;stroke-linejoin:round;stroke:rgb(18.431373%,30.980392%,30.980392%);stroke-opacity:1;stroke-miterlimit:10;" d="M 654.589844 23.113281 C 654.589844 29.199219 649.652344 34.136719 643.566406 34.136719 C 637.476562 34.136719 632.539062 29.199219 632.539062 23.113281 C 632.539062 17.023438 637.476562 12.085938 643.566406 12.085938 C 649.652344 12.085938 654.589844 17.023438 654.589844 23.113281 "/>
<path style="fill-rule:nonzero;fill:rgb(18.431373%,30.980392%,30.980392%);fill-opacity:1;stroke-width:0.708661;stroke-linecap:round;stroke-linejoin:round;stroke:rgb(18.431373%,30.980392%,30.980392%);stroke-opacity:1;stroke-miterlimit:10;" d="M 732.128906 23.113281 C 732.128906 29.199219 727.195312 34.136719 721.105469 34.136719 C 715.019531 34.136719 710.082031 29.199219 710.082031 23.113281 C 710.082031 17.023438 715.019531 12.085938 721.105469 12.085938 C 727.195312 12.085938 732.128906 17.023438 732.128906 23.113281 "/>
</g>
</svg>
