<?xml version="1.0" encoding="UTF-8"?>
<svg xmlns="http://www.w3.org/2000/svg" xmlns:xlink="http://www.w3.org/1999/xlink" width="756pt" height="360pt" viewBox="0 0 756 360" version="1.1">
<g id="surface84">
<rect x="0" y="0" width="756" height="360" style="fill:rgb(100%,100%,100%);fill-opacity:1;stroke:none;"/>
<path style=" stroke:none;fill-rule:nonzero;fill:rgb(18.431373%,30.980392%,30.980392%);fill-opacity:0.501961;" d="M 23.234375 354.765625 L 46.496094 354.765625 L 46.496094 312.53125 L 23.234375 312.53125 Z M 23.234375 354.765625 "/>
<path style=" stroke:none;fill-rule:nonzero;fill:rgb(18.431373%,30.980392%,30.980392%);fill-opacity:0.501961;" d="M 46.496094 354.765625 L 69.757812 354.765625 L 69.757812 270.296875 L 46.496094 270.296875 Z M 46.496094 354.765625 "/>
<path style=" stroke:none;fill-rule:nonzero;fill:rgb(18.431373%,30.980392%,30.980392%);fill-opacity:0.501961;" d="M 69.757812 354.765625 L 93.019531 354.765625 L 93.019531 270.296875 L 69.757812 270.296875 Z M 69.757812 354.765625 "/>
<path style=" stroke:none;fill-rule:nonzero;fill:rgb(18.431373%,30.980392%,30.980392%);fill-opacity:0.501961;" d="M 93.019531 354.765625 L 116.28125 354.765625 L 116.28125 270.296875 L 93.019531 270.296875 Z M 93.019531 354.765625 "/>
<path style=" stroke:none;fill-rule:nonzero;fill:rgb(18.431373%,30.980392%,30.980392%);fill-opacity:0.501961;" d="M 116.28125 354.765625 L 139.542969 354.765625 L 139.542969 312.53125 L 116.28125 312.53125 Z M 116.28125 354.765625 "/>
<path style=" stroke:none;fill-rule:nonzero;fill:rgb(18.431373%,30.980392%,30.980392%);fill-opacity:0.501961;" d="M 139.546875 354.765625 L 162.808594 354.765625 L 162.808594 270.296875 L 139.546875 270.296875 Z M 139.546875 354.765625 "/>
<path style=" stroke:none;fill-rule:nonzero;fill:rgb(18.431373%,30.980392%,30.980392%);fill-opacity:0.501961;" d="M 162.808594 354.765625 L 186.070312 354.765625 L 186.070312 228.0625 L 162.808594 228.0625 Z M 162.808594 354.765625 "/>
<path style=" stroke:none;fill-rule:nonzero;fill:rgb(18.431373%,30.980392%,30.980392%);fill-opacity:0.501961;" d="M 186.070312 354.765625 L 209.332031 354.765625 L 209.332031 143.59375 L 186.070312 143.59375 Z M 186.070312 354.765625 "/>
<path style=" stroke:none;fill-rule:nonzero;fill:rgb(18.431373%,30.980392%,30.980392%);fill-opacity:0.501961;" d="M 209.332031 354.765625 L 232.59375 354.765625 L 232.59375 185.828125 L 209.332031 185.828125 Z M 209.332031 354.765625 "/>
<path style=" stroke:none;fill-rule:nonzero;fill:rgb(18.431373%,30.980392%,30.980392%);fill-opacity:0.501961;" d="M 232.59375 354.765625 L 255.855469 354.765625 L 255.855469 143.59375 L 232.59375 143.59375 Z M 232.59375 354.765625 "/>
<path style=" stroke:none;fill-rule:nonzero;fill:rgb(18.431373%,30.980392%,30.980392%);fill-opacity:0.501961;" d="M 255.859375 354.765625 L 279.121094 354.765625 L 279.121094 185.828125 L 255.859375 185.828125 Z M 255.859375 354.765625 "/>
<path style=" stroke:none;fill-rule:nonzero;fill:rgb(18.431373%,30.980392%,30.980392%);fill-opacity:0.501961;" d="M 279.121094 354.765625 L 302.382812 354.765625 L 302.382812 101.359375 L 279.121094 101.359375 Z M 279.121094 354.765625 "/>
<path style=" stroke:none;fill-rule:nonzero;fill:rgb(18.431373%,30.980392%,30.980392%);fill-opacity:0.501961;" d="M 302.382812 354.765625 L 325.644531 354.765625 L 325.644531 16.894531 L 302.382812 16.894531 Z M 302.382812 354.765625 "/>
<path style=" stroke:none;fill-rule:nonzero;fill:rgb(18.431373%,30.980392%,30.980392%);fill-opacity:0.501961;" d="M 325.644531 354.765625 L 348.90625 354.765625 L 348.90625 143.59375 L 325.644531 143.59375 Z M 325.644531 354.765625 "/>
<path style=" stroke:none;fill-rule:nonzero;fill:rgb(18.431373%,30.980392%,30.980392%);fill-opacity:0.501961;" d="M 348.90625 354.765625 L 372.167969 354.765625 L 372.167969 59.125 L 348.90625 59.125 Z M 348.90625 354.765625 "/>
<path style=" stroke:none;fill-rule:nonzero;fill:rgb(18.431373%,30.980392%,30.980392%);fill-opacity:0.501961;" d="M 372.167969 354.765625 L 395.429688 354.765625 L 395.429688 101.359375 L 372.167969 101.359375 Z M 372.167969 354.765625 "/>
<path style=" stroke:none;fill-rule:nonzero;fill:rgb(18.431373%,30.980392%,30.980392%);fill-opacity:0.501961;" d="M 395.433594 354.765625 L 418.695312 354.765625 L 418.695312 101.359375 L 395.433594 101.359375 Z M 395.433594 354.765625 "/>
<path style=" stroke:none;fill-rule:nonzero;fill:rgb(18.431373%,30.980392%,30.980392%);fill-opacity:0.501961;" d="M 418.695312 354.765625 L 441.957031 354.765625 L 441.957031 185.828125 L 418.695312 185.828125 Z M 418.695312 354.765625 "/>
<path style=" stroke:none;fill-rule:nonzero;fill:rgb(18.431373%,30.980392%,30.980392%);fill-opacity:0.501961;" d="M 441.957031 354.765625 L 465.21875 354.765625 L 465.21875 143.59375 L 441.957031 143.59375 Z M 441.957031 354.765625 "/>
<path style=" stroke:none;fill-rule:nonzero;fill:rgb(18.431373%,30.980392%,30.980392%);fill-opacity:0.501961;" d="M 465.21875 354.765625 L 488.480469 354.765625 L 488.480469 185.828125 L 465.21875 185.828125 Z M 465.21875 354.765625 "/>
<path style=" stroke:none;fill-rule:nonzero;fill:rgb(18.431373%,30.980392%,30.980392%);fill-opacity:0.501961;" d="M 488.480469 354.765625 L 511.742188 354.765625 L 511.742188 270.296875 L 488.480469 270.296875 Z M 488.480469 354.765625 "/>
<path style=" stroke:none;fill-rule:nonzero;fill:rgb(18.431373%,30.980392%,30.980392%);fill-opacity:0.501961;" d="M 511.746094 354.765625 L 535.007812 354.765625 L 535.007812 270.296875 L 511.746094 270.296875 Z M 511.746094 354.765625 "/>
<path style=" stroke:none;fill-rule:nonzero;fill:rgb(18.431373%,30.980392%,30.980392%);fill-opacity:0.501961;" d="M 535.007812 354.765625 L 558.269531 354.765625 L 558.269531 143.59375 L 535.007812 143.59375 Z M 535.007812 354.765625 "/>
<path style=" stroke:none;fill-rule:nonzero;fill:rgb(18.431373%,30.980392%,30.980392%);fill-opacity:0.501961;" d="M 558.269531 354.765625 L 581.53125 354.765625 L 581.53125 270.296875 L 558.269531 270.296875 Z M 558.269531 354.765625 "/>
<path style=" stroke:none;fill-rule:nonzero;fill:rgb(18.431373%,30.980392%,30.980392%);fill-opacity:0.501961;" d="M 581.53125 354.765625 L 604.792969 354.765625 L 604.792969 270.296875 L 581.53125 270.296875 Z M 581.53125 354.765625 "/>
<path style=" stroke:none;fill-rule:nonzero;fill:rgb(18.431373%,30.980392%,30.980392%);fill-opacity:0.501961;" d="M 604.792969 354.765625 L 628.054688 354.765625 L 628.054688 312.53125 L 604.792969 312.53125 Z M 604.792969 354.765625 "/>
<path style=" stroke:none;fill-rule:nonzero;fill:rgb(18.431373%,30.980392%,30.980392%);fill-opacity:0.501961;" d="M 628.054688 354.765625 L 651.316406 354.765625 L 651.316406 312.53125 L 628.054688 312.53125 Z M 628.054688 354.765625 "/>
<path style=" stroke:none;fill-rule:nonzero;fill:rgb(18.431373%,30.980392%,30.980392%);fill-opacity:0.501961;" d="M 651.320312 354.765625 L 674.582031 354.765625 L 674.582031 312.53125 L 651.320312 312.53125 Z M 651.320312 354.765625 "/>
<path style=" stroke:none;fill-rule:nonzero;fill:rgb(18.431373%,30.980392%,30.980392%);fill-opacity:0.501961;" d="M 697.84375 354.765625 L 721.105469 354.765625 L 721.105469 270.296875 L 697.84375 270.296875 Z M 697.84375 354.765625 "/>
<path style="fill:none;stroke-width:4.267913;stroke-linecap:butt;stroke-linejoin:round;stroke:rgb(18.431373%,30.980392%,30.980392%);stroke-opacity:1;stroke-miterlimit:10;" d="M 350.039062 371.660156 L 350.039062 0 "/>
<path style=" stroke:none;fill-rule:nonzero;fill:rgb(90.196078%,25.490196%,45.098039%);fill-opacity:0.501961;" d="M 139.546875 354.765625 L 162.808594 354.765625 L 162.808594 312.53125 L 139.546875 312.53125 Z M 139.546875 354.765625 "/>
<path style=" stroke:none;fill-rule:nonzero;fill:rgb(90.196078%,25.490196%,45.098039%);fill-opacity:0.501961;" d="M 209.332031 354.765625 L 232.59375 354.765625 L 232.59375 312.53125 L 209.332031 312.53125 Z M 209.332031 354.765625 "/>
<path style=" stroke:none;fill-rule:nonzero;fill:rgb(90.196078%,25.490196%,45.098039%);fill-opacity:0.501961;" d="M 255.859375 354.765625 L 279.121094 354.765625 L 279.121094 270.296875 L 255.859375 270.296875 Z M 255.859375 354.765625 "/>
<path style=" stroke:none;fill-rule:nonzero;fill:rgb(90.196078%,25.490196%,45.098039%);fill-opacity:0.501961;" d="M 279.121094 354.765625 L 302.382812 354.765625 L 302.382812 312.53125 L 279.121094 312.53125 Z M 279.121094 354.765625 "/>
<path style=" stroke:none;fill-rule:nonzero;fill:rgb(90.196078%,25.490196%,45.098039%);fill-opacity:0.501961;" d="M 348.90625 354.765625 L 372.167969 354.765625 L 372.167969 312.53125 L 348.90625 312.53125 Z M 348.90625 354.765625 "/>
<path style=" stroke:none;fill-rule:nonzero;fill:rgb(90.196078%,25.490196%,45.098039%);fill-opacity:0.501961;" d="M 465.21875 354.765625 L 488.480469 354.765625 L 488.480469 312.53125 L 465.21875 312.53125 Z M 465.21875 354.765625 "/>
<path style=" stroke:none;fill-rule:nonzero;fill:rgb(90.196078%,25.490196%,45.098039%);fill-opacity:0.501961;" d="M 535.007812 354.765625 L 558.269531 354.765625 L 558.269531 312.53125 L 535.007812 312.53125 Z M 535.007812 354.765625 "/>
<path style=" stroke:none;fill-rule:nonzero;fill:rgb(90.196078%,25.490196%,45.098039%);fill-opacity:0.501961;" d="M 651.320312 354.765625 L 674.582031 354.765625 L 674.582031 312.53125 L 651.320312 312.53125 Z M 651.320312 354.765625 "/>
<path style=" stroke:none;fill-rule:nonzero;fill:rgb(90.196078%,25.490196%,45.098039%);fill-opacity:0.501961;" d="M 697.84375 354.765625 L 721.105469 354.765625 L 721.105469 312.53125 L 697.84375 312.53125 Z M 697.84375 354.765625 "/>
<path style="fill:none;stroke-width:4.267913;stroke-linecap:butt;stroke-linejoin:round;stroke:rgb(90.196078%,25.490196%,45.098039%);stroke-opacity:1;stroke-miterlimit:10;" d="M 389.777344 371.660156 L 389.777344 0 "/>
</g>
</svg>
